<?xml version="1.0" encoding="utf-8"?>
<!-- Generator: Adobe Illustrator 21.1.0, SVG Export Plug-In . SVG Version: 6.00 Build 0)  -->
<svg version="1.1" id="Layer_1" xmlns="http://www.w3.org/2000/svg" xmlns:xlink="http://www.w3.org/1999/xlink" x="0px" y="0px"
	 viewBox="0 0 144 144" style="enable-background:new 0 0 144 144;" xml:space="preserve">
<style type="text/css">
	.st0{fill:#28A745;}
	.st1{clip-path:url(#SVGID_2_);}
	.st2{clip-path:url(#SVGID_4_);fill:#FFFFFF;}
	.st3{clip-path:url(#SVGID_6_);}
	.st4{fill:#FFFFFF;}
	.st5{fill:#020202;}
	.st6{clip-path:url(#SVGID_8_);}
	.st7{fill:none;stroke:#000000;stroke-width:0.5;stroke-miterlimit:10;}
	.st8{fill:none;stroke:#FFFFFF;stroke-width:0.5;stroke-miterlimit:10;}
	.st9{fill:none;stroke:#FFFFFF;stroke-miterlimit:10;}
	.st10{clip-path:url(#SVGID_10_);}
	.st11{clip-path:url(#SVGID_12_);}
	.st12{clip-path:url(#SVGID_14_);fill:#FFFFFF;}
	.st13{clip-path:url(#SVGID_16_);}
</style>
<g>
	<path class="st0" d="M71.8,15.2c29.6,0,53.5,24,53.5,53.5s-24,53.5-53.5,53.5s-53.5-24-53.5-53.5S42.3,15.2,71.8,15.2 M71.8,11.2
		c-31.7,0-57.5,25.8-57.5,57.5s25.8,57.5,57.5,57.5s57.5-25.8,57.5-57.5S103.6,11.2,71.8,11.2L71.8,11.2z"/>
</g>
<g>
	<g>
		<defs>
			<circle id="SVGID_1_" cx="71.8" cy="68.8" r="53.6"/>
		</defs>
		<clipPath id="SVGID_2_">
			<use xlink:href="#SVGID_1_"  style="overflow:visible;"/>
		</clipPath>
		<rect x="14.4" y="32.4" class="st1" width="17" height="96.2"/>
	</g>
	<g>
		<defs>
			<circle id="SVGID_3_" cx="71.8" cy="68.8" r="53.6"/>
		</defs>
		<clipPath id="SVGID_4_">
			<use xlink:href="#SVGID_3_"  style="overflow:visible;"/>
		</clipPath>
		<rect x="107.3" y="10.5" class="st2" width="23.8" height="128.8"/>
	</g>
	<g>
		<defs>
			<circle id="SVGID_5_" cx="71.8" cy="68.8" r="53.6"/>
		</defs>
		<clipPath id="SVGID_6_">
			<use xlink:href="#SVGID_5_"  style="overflow:visible;"/>
		</clipPath>
		<g class="st3">
			<polygon class="st4" points="68.6,59.6 64.4,58.6 63,57.4 63,55.6 64.5,54.4 66.4,54.4 67.2,51.8 62.3,51.8 59.8,48.9 72.5,29.1 
				75.2,20.1 85.1,14.8 108.7,14.8 108.7,122.4 57.1,122.4 57.1,122.4 73.7,102.8 73.9,102.4 74.4,102.5 84.4,105.7 98,84 
				99.6,69.7 97.5,61.9 68.6,73.4 65.6,66.3 63.1,64.5 62,62.4 63.3,60.3 			"/>
			<path class="st5" d="M45.8,77.9l-4.3,3.9L36,99.9l5.8,7.5l9.6-7.8l1.4-16.2L45.8,77.9z M99.6,69.7l-1.5,14.4l-13.7,21.6l-10-3.1
				l-0.5-0.2l-0.1,0.3l-16.6,19.7l0,0h-0.1H30.6V14.8h54.6l-9.9,5.4l-2.8,9L59.8,48.9l2.4,2.9h5.1l-1,2.6h-1.9L63,55.5v1.9l1.3,1.1
				l4.2,1.2l-5.1,0.5l-1.3,2.2l1.1,2.1l2.5,1.7l3,7.1l28.9-11.4L99.6,69.7z"/>
			<polygon class="st4" points="52.8,83.4 51.3,99.7 41.6,107.4 36,99.9 41.5,81.8 45.8,77.9 			"/>
		</g>
	</g>
	<g>
		<defs>
			<circle id="SVGID_7_" cx="71.8" cy="68.8" r="53.6"/>
		</defs>
		<clipPath id="SVGID_8_">
			<use xlink:href="#SVGID_7_"  style="overflow:visible;"/>
		</clipPath>
		<g class="st6">
			<polyline class="st7" points="57,122.4 30.6,122.4 30.6,14.8 85.1,14.8 			"/>
			<polyline class="st8" points="108.7,122.4 57.1,122.4 57,122.4 			"/>
			<line class="st9" x1="108.7" y1="14.8" x2="108.7" y2="122.4"/>
			<line class="st8" x1="85.1" y1="14.8" x2="108.7" y2="14.8"/>
			<polyline class="st7" points="85.1,14.8 75.2,20.1 72.5,29.1 59.8,48.9 62.3,51.8 67.2,51.8 68.9,47.6 64,46.1 61.8,48.8 
				64.5,50.1 65.5,48.1 63.8,48.1 			"/>
			<polyline class="st7" points="67.2,51.8 66.4,54.4 64.5,54.4 63,55.6 63,57.4 64.4,58.6 68.6,59.6 71.6,60.6 			"/>
			<polyline class="st7" points="68.6,59.6 63.3,60.3 62,62.4 63.1,64.5 65.6,66.3 68.1,64.5 			"/>
			<polyline class="st8" points="68.6,73.4 97.5,61.9 99.6,69.7 92.1,66.5 96.4,64.7 97.5,67.2 			"/>
			<line class="st7" x1="65.6" y1="66.3" x2="68.6" y2="73.4"/>
			<polyline class="st8" points="98,84 84.4,105.7 74.4,102.5 73.9,102.4 67,100.4 			"/>
			<line class="st8" x1="99.6" y1="69.7" x2="98" y2="84"/>
			<line class="st7" x1="73.7" y1="102.8" x2="57.1" y2="122.4"/>
			<polygon class="st8" points="45.8,77.9 41.5,81.8 36,99.9 41.6,107.4 51.3,99.7 52.8,83.4 			"/>
			<polyline class="st8" points="45.8,77.9 61.8,71 68.6,73.4 75.5,75.8 			"/>
		</g>
	</g>
	<g>
		<defs>
			<circle id="SVGID_9_" cx="71.8" cy="68.8" r="53.6"/>
		</defs>
		<clipPath id="SVGID_10_">
			<use xlink:href="#SVGID_9_"  style="overflow:visible;"/>
		</clipPath>
		<polygon class="st10" points="94.6,61.4 100.5,50.6 88.6,50.6 		"/>
	</g>
	<g>
		<defs>
			<circle id="SVGID_11_" cx="71.8" cy="68.8" r="53.6"/>
		</defs>
		<clipPath id="SVGID_12_">
			<use xlink:href="#SVGID_11_"  style="overflow:visible;"/>
		</clipPath>
		<polygon class="st11" points="94.7,47.6 88.9,50.8 100.6,50.8 		"/>
	</g>
	<g>
		<defs>
			<circle id="SVGID_13_" cx="71.8" cy="68.8" r="53.6"/>
		</defs>
		<clipPath id="SVGID_14_">
			<use xlink:href="#SVGID_13_"  style="overflow:visible;"/>
		</clipPath>
		<polygon class="st12" points="63.5,81.8 67.1,76.3 70.2,77 69.6,79.8 		"/>
	</g>
	<g>
		<defs>
			<circle id="SVGID_15_" cx="71.8" cy="68.8" r="53.6"/>
		</defs>
		<clipPath id="SVGID_16_">
			<use xlink:href="#SVGID_15_"  style="overflow:visible;"/>
		</clipPath>
		<polygon class="st13" points="78,32.1 74.7,34.8 76.9,37.4 80.5,36.8 84.7,34.1 		"/>
	</g>
</g>
</svg>
