<?xml version="1.0" encoding="utf-8"?>
<!-- Generator: Adobe Illustrator 22.1.0, SVG Export Plug-In . SVG Version: 6.00 Build 0)  -->
<svg version="1.1" id="Capa_1" xmlns="http://www.w3.org/2000/svg" xmlns:xlink="http://www.w3.org/1999/xlink" x="0px" y="0px"
	 viewBox="0 0 512 512" style="enable-background:new 0 0 512 512;" xml:space="preserve">
<style type="text/css">
	.st0{fill:none;}
	.st1{fill:#202020;}
</style>
<g>
	<path d="M489.9,224.1l-185-184.9c-13-13-30.4-20.2-48.9-20.2c-18.5,0-35.9,7.2-48.9,20.2L21.7,224.4c-2.6,2.6-3.4,6.6-2,10.1
		c1.4,3.5,4.8,5.7,8.6,5.7h23.4l41.2,245c0,0.1,0,0.1,0,0.2c0,0.1,0.1,0.3,0.1,0.4c0,0.1,0.1,0.3,0.1,0.4c0,0.1,0.1,0.3,0.1,0.4
		c0,0.1,0.1,0.3,0.2,0.4c0,0.1,0.1,0.2,0.1,0.4c0.1,0.2,0.1,0.3,0.2,0.5c0.1,0.1,0.1,0.2,0.2,0.3c0.1,0.2,0.2,0.3,0.3,0.5
		c0,0.1,0.1,0.2,0.1,0.2c0.1,0.2,0.3,0.4,0.4,0.5c0,0,0.1,0.1,0.1,0.1c0.4,0.4,0.8,0.8,1.2,1.2c0.1,0.1,0.1,0.1,0.2,0.2
		c0.1,0.1,0.3,0.2,0.4,0.3c0.1,0.1,0.2,0.1,0.3,0.2c0.1,0.1,0.3,0.2,0.4,0.2c0.1,0.1,0.2,0.1,0.4,0.2c0.1,0.1,0.3,0.1,0.4,0.2
		c0.1,0.1,0.2,0.1,0.4,0.2c0.1,0.1,0.3,0.1,0.4,0.2c0.1,0,0.2,0.1,0.4,0.1c0.2,0,0.3,0.1,0.5,0.1c0.1,0,0.2,0,0.3,0.1
		c0.2,0,0.4,0.1,0.7,0.1c0.1,0,0.1,0,0.2,0c0.3,0,0.6,0,0.9,0c0,0,0,0,0,0H410c0,0,0,0,0,0c0.3,0,0.6,0,0.9,0c0.1,0,0.1,0,0.2,0
		c0.2,0,0.4-0.1,0.7-0.1c0.1,0,0.2,0,0.3-0.1c0.2,0,0.3-0.1,0.5-0.1c0.1,0,0.2-0.1,0.4-0.1c0.1,0,0.3-0.1,0.4-0.2
		c0.1,0,0.3-0.1,0.4-0.2c0.1-0.1,0.3-0.1,0.4-0.2c0.1-0.1,0.2-0.1,0.4-0.2c0.1-0.1,0.3-0.2,0.4-0.2c0.1-0.1,0.2-0.1,0.3-0.2
		c0.1-0.1,0.3-0.2,0.4-0.3c0.1-0.1,0.2-0.1,0.2-0.2c0.4-0.4,0.8-0.8,1.2-1.2c0-0.1,0.1-0.1,0.1-0.2c0.1-0.2,0.3-0.3,0.4-0.5
		c0.1-0.1,0.1-0.2,0.1-0.2c0.1-0.2,0.2-0.3,0.3-0.5c0.1-0.1,0.1-0.2,0.2-0.3c0.1-0.1,0.2-0.3,0.2-0.5c0.1-0.1,0.1-0.2,0.2-0.4
		c0.1-0.1,0.1-0.3,0.2-0.4c0-0.1,0.1-0.3,0.1-0.4c0-0.1,0.1-0.3,0.1-0.4c0-0.1,0.1-0.3,0.1-0.4c0-0.1,0-0.1,0-0.2l41.2-245h23.4
		c0,0,0,0,0,0c5.1,0,9.3-4.1,9.3-9.3C493,228.2,491.8,225.8,489.9,224.1z M154.2,474.5h-44.3l-12.5-74.1h56.8V474.5z M339.3,474.5
		H172.7v-83.3c0-45.9,37.4-83.3,83.3-83.3s83.3,37.4,83.3,83.3V474.5z M402.1,474.5h-44.3v-74.1h56.8L402.1,474.5z M439.2,254.5
		h-53.2c-5.1,0-9.3,4.1-9.3,9.3c0,5.1,4.1,9.3,9.3,9.3H436l-18.3,108.9h-60.3c-4.7-51.8-48.4-92.6-101.4-92.6
		c-53,0-96.7,40.7-101.4,92.6H94.3L75.9,273H126c5.1,0,9.3-4.1,9.3-9.3c0-5.1-4.1-9.3-9.3-9.3H72.8l-2.4-14.3h20.3
		c2.5,0,4.8-1,6.5-2.7L256,78.7l158.8,158.8c1.7,1.7,4.1,2.7,6.5,2.7h20.3L439.2,254.5z M425.1,221.7L262.5,59.1
		c-3.6-3.6-9.5-3.6-13.1,0L86.8,221.7H50.6L220.2,52.3c9.5-9.5,22.3-14.8,35.8-14.8c13.6,0,26.3,5.2,35.8,14.8l169.5,169.4
		L425.1,221.7L425.1,221.7z"/>
	<g>
		<path class="st0" d="M489.9,224.1l-185-184.9c-13-13-30.4-20.2-48.9-20.2c-18.5,0-35.9,7.2-48.9,20.2L21.7,224.4
			c-2.6,2.6-3.4,6.6-2,10.1c1.4,3.5,4.8,5.7,8.6,5.7h23.4l41.2,245c0,0.1,0,0.1,0,0.2c0,0.1,0.1,0.3,0.1,0.4c0,0.1,0.1,0.3,0.1,0.4
			c0,0.1,0.1,0.3,0.1,0.4c0,0.1,0.1,0.3,0.2,0.4c0,0.1,0.1,0.2,0.1,0.4c0.1,0.2,0.1,0.3,0.2,0.5c0.1,0.1,0.1,0.2,0.2,0.3
			c0.1,0.2,0.2,0.3,0.3,0.5c0,0.1,0.1,0.2,0.1,0.2c0.1,0.2,0.3,0.4,0.4,0.5c0,0,0.1,0.1,0.1,0.1c0.4,0.4,0.8,0.8,1.2,1.2
			c0.1,0.1,0.1,0.1,0.2,0.2c0.1,0.1,0.3,0.2,0.4,0.3c0.1,0.1,0.2,0.1,0.3,0.2c0.1,0.1,0.3,0.2,0.4,0.2c0.1,0.1,0.2,0.1,0.4,0.2
			c0.1,0.1,0.3,0.1,0.4,0.2c0.1,0.1,0.2,0.1,0.4,0.2c0.1,0.1,0.3,0.1,0.4,0.2c0.1,0,0.2,0.1,0.4,0.1c0.2,0,0.3,0.1,0.5,0.1
			c0.1,0,0.2,0,0.3,0.1c0.2,0,0.4,0.1,0.7,0.1c0.1,0,0.1,0,0.2,0c0.3,0,0.6,0,0.9,0c0,0,0,0,0,0H410c0,0,0,0,0,0c0.3,0,0.6,0,0.9,0
			c0.1,0,0.1,0,0.2,0c0.2,0,0.4-0.1,0.7-0.1c0.1,0,0.2,0,0.3-0.1c0.2,0,0.3-0.1,0.5-0.1c0.1,0,0.2-0.1,0.4-0.1
			c0.1,0,0.3-0.1,0.4-0.2c0.1,0,0.3-0.1,0.4-0.2c0.1-0.1,0.3-0.1,0.4-0.2c0.1-0.1,0.2-0.1,0.4-0.2c0.1-0.1,0.3-0.2,0.4-0.2
			c0.1-0.1,0.2-0.1,0.3-0.2c0.1-0.1,0.3-0.2,0.4-0.3c0.1-0.1,0.2-0.1,0.2-0.2c0.4-0.4,0.8-0.8,1.2-1.2c0-0.1,0.1-0.1,0.1-0.2
			c0.1-0.2,0.3-0.3,0.4-0.5c0.1-0.1,0.1-0.2,0.1-0.2c0.1-0.2,0.2-0.3,0.3-0.5c0.1-0.1,0.1-0.2,0.2-0.3c0.1-0.1,0.2-0.3,0.2-0.5
			c0.1-0.1,0.1-0.2,0.2-0.4c0.1-0.1,0.1-0.3,0.2-0.4c0-0.1,0.1-0.3,0.1-0.4c0-0.1,0.1-0.3,0.1-0.4c0-0.1,0.1-0.3,0.1-0.4
			c0-0.1,0-0.1,0-0.2l41.2-245h23.4c0,0,0,0,0,0c5.1,0,9.3-4.1,9.3-9.3C493,228.2,491.8,225.8,489.9,224.1z M154.2,474.5h-44.3
			l-12.5-74.1h56.8V474.5z M339.3,474.5H172.7v-83.3c0-45.9,37.4-83.3,83.3-83.3s83.3,37.4,83.3,83.3V474.5z M402.1,474.5h-44.3
			v-74.1h56.8L402.1,474.5z M439.2,254.5h-53.2c-5.1,0-9.3,4.1-9.3,9.3c0,5.1,4.1,9.3,9.3,9.3H436l-18.3,108.9h-60.3
			c-4.7-51.8-48.4-92.6-101.4-92.6c-53,0-96.7,40.7-101.4,92.6H94.3L75.9,273H126c5.1,0,9.3-4.1,9.3-9.3c0-5.1-4.1-9.3-9.3-9.3H72.8
			l-2.4-14.3h20.3c2.5,0,4.8-1,6.5-2.7L256,78.7l158.8,158.8c1.7,1.7,4.1,2.7,6.5,2.7h20.3L439.2,254.5z M425.1,221.7L262.5,59.1
			c-3.6-3.6-9.5-3.6-13.1,0L86.8,221.7H50.6L220.2,52.3c9.5-9.5,22.3-14.8,35.8-14.8c13.6,0,26.3,5.2,35.8,14.8l169.5,169.4
			L425.1,221.7L425.1,221.7z"/>
		<g>
			<g>
				<g>
					<path class="st1" d="M422.5,220.6c3,2.8-1.2-1.9,2,1.7C424,222.1,423.3,221.7,422.5,220.6z"/>
					<path class="st1" d="M438.6,222.5c6.8-0.8,14.6-0.8,22.9-0.7c-2.6-2.6-5.3-5.4-7.9-8c-2.6-2.6-5.2-5.1-7.8-7.3
						c-1.2-1.1,0.9-0.3-1.9-2.8c-10.6-9-25.6-24.9-36.9-37.5l0.9,0.6c-2.2-2.4-5.5-4.6-7.8-7.1c0.1-0.1,0.9,0.6,0.5-0.1
						c-0.9-0.3-4.5-4.2-5.8-5c-0.8-1.1-0.5-1.3-1.6-2.6l-1.8-1c-4.7-2.9-9.3-9.4-15-14.1c0.3,0.2,0.9,0.6,0.6,0.1
						c-9-7.9-19.4-18.5-29-27.7c0.5,0.2,1.1,0.3,0.7-0.4c-0.9-0.1-3.9-2.9-6.5-5.3c-0.7-1.5-4.7-3.9-7.4-7.1l0.3,0.2
						c-2.6-1.8-3-3.5-5.3-4.7l-1.1-1.7c-1.5-0.4-2.9-3.5-5-5l-0.1,0.2c-1.8-1.6-2.4-2.7-4.1-4.2l-0.1-0.2c-3.9-3.5-5.7-6-6-5.5
						c-0.9-1.7,3.7,3.4,2.2,0.9c-6.3-5.8-12.6-11.9-18.8-18.1l-4.7-4.6c-1.5-1.6-3.1-3-4.8-4.4c-3.4-2.7-7-5-11-6.7
						c-1.7-1.1-2.8-1.5-3.2-1.9c-0.8-0.2-2.4-0.7-4-1.1c-0.8-0.2-1.6-0.4-2.3-0.4c-0.7-0.1-1.3-0.2-1.7-0.2c0.6,0.1-1-0.5-1.9-0.7
						c-1.5-0.3-2.4-0.3-3.3-0.1c-0.9,0.1-1.8,0.2-3.5,0c1.4-0.1,1.8-0.3,1.4-0.6c-3,0.3-6.9,0.5-10.3,1.2c0.5-0.2,1.3-0.4,1.2-0.6
						c-3.7,1.1-6.9,1.2-9.9,2.6l1.1-0.7c-1.3,0.3-2,0.6-2.5,0.8c-0.4,0.2-0.6,0.4-0.7,0.5c-0.2,0.3-0.3,0.6-2.5,1.4
						c1-0.6,0.6-0.5,0.7-0.7c-1.8,1.2-4.3,2.6-6.6,4.2c-2.3,1.6-4.5,3.3-6.1,4.8c0.2-0.2,0-0.2,0-0.2c-1.7,1.6-3.4,3.3-5.2,5
						c-1.8,1.7-3.5,3.5-5.3,5.5c-1.5,1.2-0.2-1.1-3.6,2.5c0.7,0.4-5.8,6.2-3.1,4.7c-3.1,2.9-8.1,7.5-9.9,9.7
						c1.2-1.6-2.1,0.8,0.3-1.7l-2.2,1.6c0.1-0.5,2-1.9,1.2-1.5c-1.2,1.3-4.7,5.1-5.9,6.2c-2,2.6-3.5,5.4-7.2,9.2
						c1.6-2-1.6,0.4-0.5-0.9l-4.3,6.3c-1.2,1.3-0.7-0.1-2.4,1.8c0.2,0-0.5,0.9-0.9,1.6c-0.5,0.4-5.1,5.3-6.1,5.4
						c-0.8,0.3,1.9-2.2,0.4-0.9c-2.3,2.3-2.2,2.6-4.5,4.9l-0.1,0c-1.6,1.5-4.3,4.7-2.3,3.3c1.1-1-0.7,0.1,1-1.3
						c-0.8,1.4-3.4,4.1-5.7,6.5c0.7-0.9,0.5-0.9,0.6-1.4c-2.7,3.5-5.9,6.9-9.2,10.6c0.2,0.3,0.8-1.7,1.5-2.1
						c-4.8,4.1-8.7,9.7-12.9,12.9c0.6-0.7,0.7,0,0.6,0c-2.2,2.1-2.4,1.7-3.7,3.2c-0.3-0.1-1.7,1.8-3.1,3.3c-0.6,0.9-0.5,0.3,0.8-1
						c-1.8,2.2-9.5,10.5-14.5,14.8c0.2,0-2.3,3.4-3.4,4.4l0.1-0.7c-1.2,0.8-3.5,3.6-4,3.5c-1.9,2.7,8.4-9.1,5.7-5.7
						c-1.1,0.5-3.8,4.8-3.5,3.7c-2.1,2.2-3.8,4.6-6.2,6.3c0.6-0.5,1.3-2.2-0.4-0.4c-3,3.1-0.7,1-3.1,3.6l-1.4,1.7
						c0.2,0.4-2.8,2.7-1.3,1.9c-0.6,0.1-4.3,4.6-4.5,3.7l0-0.8c-1.3,1.3-1.7,2.6-2.6,3.8c-0.2,0.1-0.6,0.4-0.6,0.3
						c0.4,0.8-3.2,3.1-4.3,5.1c-3,2.5-7,7-8.7,7.9c-1.9,2.3-3.6,4.5-6.2,6.8c0.4-0.5,1.1-1.2,1.1-1.5c-1.7,1.3-1.9,1.9-3.2,3.4
						c0.2-0.4-3.4,2.7-5.3,4.1c-1.9,2.3-0.9,1.9-0.9,2.3c-1.3,0.6-2.7,2.3-4.1,3.9c-0.3,0.4-0.6,0.8-0.9,1.2c-0.3,0.3-0.7,0.6-1.4,1
						c0.1-0.2,0.3-0.6,0.4-0.8c0.1-0.3,0.1-0.4-0.7,0.2c-0.9,0.4-1.4,1-1.8,1.4c-0.4,0.5-0.5,0.9-0.7,1.2c1-0.1,1.8-0.2,2.4-0.1
						c0.2-0.2,0.4-0.5,0.6-0.7c0,0.2,1.1,0.1,1.7,0.1c0.7-0.1,1.1-0.1,0.9,0.3c0.2-0.1,0.5-0.1,0.7-0.1c0.5,0,1,0,1.5,0
						c1,0,1.9,0,1.6-0.4c3.6,0.3,8,0.2,12,0.2c2,0,3.9,0,5.7,0.1c0.9,0,1.6,0.1,2.4,0.2c0.4,0,0.7,0.1,1,0.2
						c0.2,0.1,0.4,0.1,0.6,0.2c0.1,0,0.3,0,0.5-0.1c0.2-0.3,0.5-0.6,0.7-0.8c0.3-0.3,0.4-0.6,0.2-0.5c-0.2,0.1-0.3,0.2-0.5,0.3
						c-0.1,0.1-0.2,0.1-0.2,0.2c-0.1,0.2-0.2,0.3-0.3,0.5c-0.1,0.1-0.3,0.1-0.4,0c0.2,0,0.3,0,0.4-0.1c0.1-0.2,0.1-0.3,0.1-0.4
						c0.1-0.1,0.2-0.2,0.3-0.2l0.1-0.1l0.1-0.1l0.1-0.1c0.3-0.3,0.6-0.5,0.8-0.6c0.4-0.2,0.4-0.1-0.1,0.9c3.8-3.2,2.8-4.5,7.5-8.8
						c0,0.4,0.4,0.1,1.7-1.2l2.1-2.8c3-2.8,2.1-1.2,2.5-0.9c1.5-1.6,3.4-3.5,3.8-4.5l2.3-1.4c-1.7,1.1,1.1-1.5,1.7-2.3l-0.6,0.8
						c0.4-0.1,2.1-2,3-3c-0.4,0-2.3,1.7-3.4,2.7c0.6-0.9,1.9-2.1,2.8-3.4c0,0.7,2.8-2.3,4-3.5c1.5-1.3,1.3-1.9,1.7-2.3
						c0.2,0.1,2.3-2.3,1.5-0.9c-0.4,0.5-1.3,0.9-1.9,1.9c1.1-0.8,1.3-0.4,3-2.5c1.3-1.6-1.1-0.3,1.9-2.9c-0.6,0.8-0.6,1.1-1.1,1.8
						l2.8-2.4l-0.2-0.4c0.4-0.3,0.2,0,0.4-0.1c0.4-1.1,3.9-4.1,4.1-5c1.3-1.3,3-2.5,4.3-3.7l-0.2,0.3c1.7-1.3,3.6-3.5,4.7-5l0,0.1
						c0.9-0.8,2.8-2.8,3.6-4.1c2.3-1.9,1.9,0.5,3.8-2.2c2.1-2.1,2.8-3.9,1.7-3.3c4.1-3.6,7.9-8.5,11.9-11.6c0.4-0.7,0-0.4,1.1-1.6
						c5.8-5.5,11.5-12.3,16.6-16.1c-1.5,1.8,0.2,0.4,0.4,0.6c1.1-1.6,1.9-1.3,1.9-2.3c-0.4-0.1-0.4-0.4-2.1,1
						c3.2-3.5,8.3-8.6,10.4-10.2c-1.1,0.8-0.4,0,0.2-0.8c0.2,0.7,2.8-1.7,4.5-3.7l0-0.5l1.5-0.9c0.6-0.8,0.2-1.4,2.3-3
						c0.2,0,0.4,0,0.8-0.3c1.7-2.2,4.1-5.3,6.4-7.2l2.1-1.3c0.9-0.9,2.1-2.7,0.4-1.2c3.8-3.3,6.2-5.6,7.7-6.4
						c5.3-7,14.3-16,21.5-23.2l0,0.4c2.1-1.7,0.6-1.4,2.1-2.6c-0.4,0.8,1.9-1,0.6,0.7c3-2.5,3.2-3.9,4.9-5.8c0-0.5-1.3,1.6-1.3,0.9
						c0.2-0.4,4-3.6,4.1-4.5c0.9-0.5,0.6,0.3,0.4,0.9l1.5-1.9c2.5-1.6-3.8,5.6-1.1,4l1.5-1.6c1.9-1.1-3.6,4.6,0.4,0.8
						c1.5-1.9,2.3-3.9,0.7-2.6c0.9-0.9,1.3-1.5,1.6-2c0.3-0.5,0.5-0.9,0.7-1.3c0.2-0.3,0.4-0.8,1-1.2c0.6-0.5,1.5-1.1,3.2-1.5
						c1,0-0.4,0.2-1.7,0.8c-1.3,0.6-2.5,1.6-1.8,1.4c1.4-0.7,2.8-1.3,4.3-1.7c1.5-0.4,3-0.5,4.4-0.1c-1.5-0.4-1.7-0.5-1.1-0.7
						c0.3-0.1,0.7-0.1,1.3-0.1c0.5,0,1.1,0.1,1.6,0.3c0.9,0.4,1.1,0.6,1.1,0.7c0,0.1-0.3,0-0.5,0c-0.2,0-0.4,0-0.2,0.1
						c0.2,0.1,0.7,0.3,1.8,1c0.4,0,1.6,0.8,2.3,1.2C264.9,57,265,57,265,57c0-0.1,0-0.1-0.2-0.3c-0.2-0.2-0.4-0.5-0.8-0.8
						c0.2,0.1,0.5,0.2,0.7,0.4c0.2,0.2,0.5,0.4,0.7,0.5c0.4,0.3,0.7,0.7,1.1,1.1c0.7,0.8,1.5,1.7,2.4,2.3c0.5,1.3-3.7-1.9-0.9,1.3
						c-0.1-0.8,4.2,3.2,3.2,1.1c1.1,1.3,0.9,1.7-0.2,1.1c1.5,1.9,4.7,3.4,4.6,4.7l1,0.2c0.4,0.6,1.1,1.5,1.7,2.6
						c1.5,1.5,5.3,4.3,4.6,4.7c0.5,0.4,3.9,3.8,3,2.1c-1.9-2.3-2.7-2.1-3.3-3.8c1.1,1.9,3.1,3,4.4,4l0,0.4c0.8,0.6,2.4,2.4,3.1,2.6
						c-0.7-0.4-0.5,0,0,0.6l1.1,0.4c3.1,2.8,0.1,1.3,3.1,4l-2.4-1.9c0.5,0.4,1.2,1.7,2.7,3c0.8,0.2,2.2,0.9,2.9,1.1
						c1.7,1.5,0.4,1.1,2.3,2.3l-2.4-1.7c-0.4-0.2,0.9,1.9,3.1,4c1.5,1.3,4.1,3,2,0.6c1.1,1.1,2.4,2.8,1.3,2.1c2.6,2.3,0-0.6,2.3,1.3
						c0.7,1.1,3.1,4,4.4,6l-2.7-1.7l1.5,1.5c-2.3-1.5,0.7,1.3-0.8,0.6c0.9,1.1,2.3,2.1,3.4,3c-2.2-3.6,4.2,2.3,4,0.9
						c4.2,3.8,1,4,6.2,7.2c-0.5-0.8,1.9,0.7-0.8-1.7c2.4,2.6,2.3,1.1,5,4.3c-2.4-1.9,1.7,3-1.8,0.2c0.4,0-1.6-1.9-2.1-2.3
						c0.8,1.3-0.8,0.4,1.7,3c1.6,1.5,3.8,3.6,3.8,3c0.3-0.4-2.4-2.3-1.1-1.7c3.2,3,3.2,4,5.1,4.7c-2-1.9-2.1-2.8-1.9-3l2.4,2.1
						l-0.7-0.2c3.5,3.8,1.5,0.6,5,4.3l1.2,2.1c-1.2-0.4-5-5.3-5-4c2.3,2.3,3.4,2.8,5.4,5.1c-0.5-0.4-1.2-1.1-1.8-1.5
						c0.8,0.8,0.8,2.5,4.5,5.3c1.9,1.5,0.7,0.2,1,0c3.8,3.6,5.1,4.5,7.6,6.8c-1,0,4.2,4.3,1,2.1c-0.9-1.5-6.3-6.8-8.1-7.7
						c0.8,1.9-2.8-3-4.2-3.2c3,3,2.3,3.4,2.4,4.2c0.8,0.8,1.8,1.5,2.3,1.9c0.7,0-0.4-1.1-0.1-1.5c3.2,3.4,6.6,6.4,8.8,7.9
						c0.9,1.3,0.2,1.3-1.1,0c4,3.8,8.2,8.1,11.8,11.9c-1.9-3,4.3,4,3.1,1.9c-1.9-2.1-3.2-4.3-1.8-3.4c1.2,1.3-0.3,0.2,0.1,0.9
						c1.9,1.3,2,3,4,4.1c-3.8-3.4-1.4,0-2.5-0.2c2.8,2.3-0.4,0.2,2.1,2.8c2.8,2.3,6.2,5.3,9.2,8.1c3.2,4,9.1,9.1,12.4,12.4
						c1.5,1.9-0.2,1.3,1.6,3.2c2.2,2.1-1.1-2.1,1.9,1.3l-0.4-0.2c1.1,0.8,5.5,6.2,7.1,6.4l-1.5-0.4c0.5,0.6,1.2,1.1,1.8,1.5
						c-0.2,0.2,0.4,1.1-0.7,0.2c1.6,2.3,4.2,4.1,6.3,6.2l-1.1-1.7c3.9,3.4,6,6.2,9.7,9.6l-0.4,0.2l2.3,1.9c-0.8-0.2,0.9,1.9,2.3,2.8
						l-6.2-4.7c-1.3-1.7,2,1.3,1.4,0c-0.5-1.1-3.9-4.3-4.7-4.5c1.2,1.3,1.3,1.3,2.4,2.1c0,0.9-1.9-1.1-3.1-1.7
						c0.7,0.6,1.5,1.7,1.8,1.7c-1.5-1.1-2.8-2.3-5-4.5c1.6,1.3-0.5-1.1,0.2-0.6c-0.6,0.2-2.7-1.7-5.3-4.5c-1.4-2.3-5.3-4.7-8.2-7.9
						c1.6,0.9,3.5,2.1,5.6,3.8c-1.7-2.1-2.2-2.1-3.9-4.3c-1.2-0.6-2.3-0.9-5-3.2l0.2-0.4c-2.4-2.1-2.9-1.7-5.7-4.7
						c-4.8-5.1-9.9-10.2-13.7-14.1l0.1-0.4c-2.7-1.5-7.3-6.8-10.4-9.4c-4.6-5.1-10.8-10.2-12.8-13.2c-8.8-8.3-16.4-15.6-25.2-24.5
						l1.9,1.1c-1.9-1.3-0.8-1.3-2.4-2.8c1.4,2.1-2.6-1.7-3.9-2.6c-3.6-4.3-9-9-12.8-12.2l0.2-0.4c-4.1-3-7.8-7.7-12.1-12.2
						c-0.4-0.6-0.9-1.7-2.3-3c-2.8-1.9-4.1-3.2-7.8-6.4c-2.6-2.6-6.6-6.8-9-9.6c-2.6-2.2-5.1-4.6-7.6-6.9l-1.9-1.8l-0.9-0.9
						c-0.3-0.3-0.6-0.6-0.9-0.8c-0.9-0.8-2.1-1.4-3.4-1.6c-1.2-0.2-2.5-0.1-3.7,0.4c-0.6,0.3-1.1,0.6-1.6,1
						c-0.1,0.1-0.2,0.2-0.4,0.3c-0.1,0.1-0.2,0.2-0.4,0.4l-0.9,0.9c-2.4,2.5-4.9,5-7.3,7.6l-1.1,0.4c-9,10.4-21.5,21.6-29.4,30.3
						l0.2-1.4c-2.8,2.4-5.8,6.1-4.7,5.8c-2.8,2.4-6.2,6.8-8.3,7.9c-2.8,2.5-3,3.5-5.1,5.8c-5.5,5.1-7.5,7.1-12.4,12.2l1.3-1.2
						c0.4-0.7,0.2-1-1.1,0.2c-1.7,2-7,6.7-4.5,5.5c-5.7,5-12.2,12.8-17.9,17.5c0.6-0.3-0.6,1.1-1.1,1.8c-4.7,4.7-10,9.2-13.4,13.3
						c-0.8,0.7,0.9-1.5-1.1,0.4c-1.1,1.2,0.2,0.3-1.1,1.8c-7.3,8-15.8,15-22.6,22c-5.1,5.4-10.4,10.9-15.8,16.2
						c-5.7,5.7-11.3,11.3-16.8,16.8c-2.9,0-5.8,0-8.6,0l0.2-0.2c-5.6,0.7-13.1-0.8-17.5,0.4c-0.2,0-0.4,0-0.6-0.1
						c-0.1,0-0.2,0-0.4,0c-0.1,0-0.3,0-0.5,0c-0.9,0-1.9,0-2.8-0.1c-1.7,0-2.9-0.1-1.9-0.3c-3.6,0.2-8.4,0.2-13.3,0.1
						c2.4-2.3,4.8-4.6,7.1-6.9c1.1-1.1,2.3-2.3,3.3-3.4c0.5-0.6,1.1-1.1,1.6-1.7c0.3-0.3,0.5-0.6,0.8-0.8l0.4-0.5
						c-0.2,0.2-0.3,0.3-0.6,0.6c-0.3,0.3-0.6,0.6-1,1.1c0.8-0.7,1.5-1.4,2.2-2.1c0.6-0.5,1.1-1.1,1.7-1.6c1.1-1.1,2.2-2.2,3.3-3.3
						c2.2-2.2,4.3-4.5,6.9-6.8c-0.4,0.6-1.3,1.5-1.3,1.8c2.1-1.6,3.8-5,5.5-5.4c1.1-1.1,0.4-1.1-0.2-0.4
						c10.9-10.3,21.7-22.1,32.6-33.2c8.3-7.5,1.6,0.6,7.3-6.1c0.6-0.4,0.1-0.6,0.3-0.6c2.2-2.6,4.5-3,5.8-5
						c-1.1,0.3,0.9-1.3,0.7-1.6c5.1-4.6,6.4-5.2,9.9-9.3l-0.1,0.5c3.9-5.1,9.4-9.9,12.4-14.4c24.5-24.8,47.8-48.8,71.7-72.9l2.2-2.2
						l1.1-1.1l1.2-1.2c1.6-1.6,3.4-3,5.2-4.4c3.7-2.7,7.6-4.9,11.8-6.6c8.4-3.4,17.6-4.6,26.5-3.7c9,0.9,17.8,4.1,25.3,9.3
						c1.9,1.3,3.7,2.7,5.4,4.2c0.8,0.8,1.7,1.6,2.5,2.3l2.2,2.3c3,3,5.9,6.1,8.9,9.1c5.1,6.2,5.5,6.6,12,12.6
						c-0.3-0.2-0.8-0.5-0.4,0c0.8-0.2,4.4,4.3,5.5,4.5c8.8,9,17.2,17.1,26.4,26.3c-1.5-1.4-2.6-1.7-0.9-0.1l2.1,1.5l0.2,0.4
						c1.2,1.1,2.8,2.2,1.7,0.8c23.5,22.6,45.2,46.2,67.9,68.7c5.2,5.6,13,13,18.9,18.7c4.1,4.4,8.1,8.7,12.1,12.9c1,1.1,2,2.1,3,3.2
						l1.5,1.6l2.4,2.5c3.3,3.4,6.5,6.7,9.8,10.1c-4.9,0-9.7-0.1-14.6-0.1c-3.3,0-6.6,0-9.9,0c-3,0-6,0-9.1,0.1c-1.5,0-3.1,0-4.6,0.1
						c-0.8,0-1.6,0-2.3,0l-1.2,0l-0.6,0l-0.3,0l-0.1,0l-0.1,0l0,0l0,0l0,0c-1.3-1.3,2.8,2.8-2.8-2.8l0,0l0,0l2.8,2.8l0,0l0,0l0,0
						c0,0,0,0,0,0c0,0,0.1,0,0.1-0.1c0.1,0,0.3-0.1,0.5-0.2c0.5-0.2,1.2-0.4,2.2-0.6C430.1,223.2,433.5,222.7,438.6,222.5z"/>
					<path class="st1" d="M419,217.2c-0.4-0.8-2.3-3-0.4-1.7C418.6,215.9,419.4,217.2,419,217.2z"/>
					<path class="st1" d="M367.8,161.2c-0.1,0-0.7-0.9-0.8-1.1c0.7,0.6,1.5,1.1,1.9,1.7C368.2,161.2,368.2,161.4,367.8,161.2z"/>
					<path class="st1" d="M354.2,147.4c0.4,0,3.5,2.8,5.3,4.5L354.2,147.4z"/>
					<path class="st1" d="M342.3,133.7c-0.9-1.3-0.5-1.1,1,0.4C343.2,134.4,342.7,133.9,342.3,133.7z"/>
					<path class="st1" d="M340.9,133.3c-1.1-1.1-1.5-1.7-1.9-2.3C338.9,131.2,341.6,133.3,340.9,133.3z"/>
					<path class="st1" d="M313.8,105c-0.7-0.7-2.3-1.9-2.7-2.8C311.6,103.1,314.6,105.2,313.8,105z"/>
					<path class="st1" d="M300.6,92.4c-0.4-0.4-0.5-0.6-1.1-1.1c-0.7-0.9,0.3-0.2,1,0.4L300.6,92.4z"/>
					<polygon class="st1" points="56.1,219.3 56,219.5 56.9,219.4 56.2,219.7 55.8,219.6 					"/>
					<path class="st1" d="M155.4,120.1c1.3-1.5,1.2-0.8,1.4-1C155.5,120.4,157,118.4,155.4,120.1z"/>
					<polygon class="st1" points="209.8,63.7 209.3,64.1 209.1,63.6 					"/>
				</g>
			</g>
		</g>
		<g>
			<g>
				<g>
					<path class="st1" d="M435.7,255.6c5.3-0.1-2.8-0.5,3.5-0.2C438.4,255.6,437.4,255.8,435.7,255.6z"/>
					<path class="st1" d="M438.9,239.5c-1.2,0.1-2.4,0.2-3.6,0.3c-1.1,0.1-2.2,0.1-3.4,0.2c-2.3,0.1-4.6,0.2-7,0.2
						c-2.4,0-4.9,0.4-7.2-0.7c-1.1-0.5-2.2-1.2-3-2.1c-0.9-0.9-1.8-1.8-2.6-2.7c-7.1-7.2-14.2-14.5-21.2-20.8
						c-1.6-1.5,1-0.2-2.6-3.5c-13.6-11.9-33.3-32.6-48.2-48.8l1.1,0.8c-2.8-3.1-7-6.2-10.1-9.4c0.1-0.1,1.2,0.8,0.6,0
						c-1.1-0.5-5.8-5.5-7.4-6.6c-1.1-1.4-0.7-1.5-2.2-3.3l-2.2-1.4c-5.9-4.1-12.1-12.2-19.4-18.6c0.4,0.2,1.2,0.8,0.7,0.2
						c-11.5-10.4-25.1-24.2-37.5-36.2c0.6,0.4,1.3,0.6,0.8-0.3c-0.5-0.1-1.7-1.1-3.2-2.4c-0.8-0.7-1.6-1.4-2.4-2.2
						c-0.7-0.7-1.5-1.4-2.3-2.1c-0.1-0.2-0.3-0.4-0.5-0.6c-0.4,0.3-0.9,0.9-1.5,1.5c-0.6,0.7-1.2,1.4-1.9,2.2
						c-1.5,1.7-3.2,3.6-5,5.2l0.2-0.4c-2.4,3.3-4.5,4-6.3,6.8l-2.1,1.5c-0.7,1.8-4.4,3.8-6.5,6.5l0.2,0c-2.1,2.4-3.5,3.2-5.5,5.4
						l-0.3,0.1c-4.7,5-7.8,7.4-7.2,7.8c-2,1.3,4.5-4.8,1.3-2.7c-15.4,16.3-31.8,32.5-47.7,48.5c-2,1.6-3.2,2.7-3.8,3
						c-1.5,1.7-5.9,6.1-7.1,7.8c0.5-0.5-1.3,0.8-2.1,1.6c-3.1,2.7-2.7,3.7-6.1,6.6c1.1-1.4,1.4-2,0.8-1.7c-2.4,3.1-6.1,6.6-9.2,10
						c0.4-0.6,1.2-1.4,0.9-1.4c-3.1,3.9-6.5,6.3-9.3,9.7l0.9-1.4c-5.3,4.6-0.9,2-5.4,6.1c0.9-1.1,0.5-0.9,0.6-1.1
						c-3.5,4.5-10.1,10.8-14,14.9c0.2-0.3,0.1-0.3,0.1-0.3c-4.3,4.4-9,8.8-13.5,13.8c-1.9,1.6-0.1-1.2-4.6,3.5
						c0.3,0.2-1.6,2.2-3.1,3.9c-0.8,0.9-1.5,1.7-1.9,2.1c-0.4,0.4-0.3,0.5,0.7,0c-1.2,1-2.7,1.9-4.5,2.3c-0.9,0.2-1.9,0.3-2.7,0.2
						c-0.9,0-1.7,0-2.5,0c-3.4-0.1-6.5-0.1-8.3,0.1c2.5-0.3-2.7-0.9,1.9-1l-3.5-0.4c0.5-0.3,3.6,0.1,2.5-0.3c-1,0-2.9,0.1-4.8,0.1
						c-2.2,0.1-4.4,0.1-5.9,0.1c0.1,0.6,0.2,1,0.2,1.3c0.3,1.2,0.6,2.3,0.9,3.3c0.3,1,0.6,1.9,0.9,3c0.3,1,0.6,2.1,0.9,3.3
						c0.3,1.1,0.6,2.1,0.8,3.3c0.4,0,1,0,1.5,0c-1.4,0.1-1.2,0.3-0.8,0.5c0.4,0.2,1.2,0.3,0,0.4l9.8-1.4c2.3,0,0.5,0.6,3.8,0.4
						c-0.2-0.2,1.3-0.3,2.3-0.5c0.9,0.1,9.6-0.2,10.6,0.5c1,0.3-3.8,0.2-1.2,0.4c4.3,0,4.5-0.3,8.7-0.3l0.1,0.1
						c2.8,0.1,8.3-0.3,5.2-0.7c-2,0,0.7,0.4-2.2,0.2c2-0.4,6.9-0.5,11.2-0.6c-1.5,0.1-1.3,0.3-1.9,0.5c1.4-0.1,2.9-0.3,4.4-0.4
						c0.4,0,0.7-0.1,1.1-0.1c0.4,0,0.9,0,1.3,0c0.9,0.1,1.7,0.3,2.6,0.6c1.7,0.6,3.3,1.7,4.5,3.1c1.2,1.4,2.2,3.2,2.5,5.1
						c0.2,0-0.1-0.7-0.5-1.5c-0.5-0.8-1.1-1.6-1.3-2.1c0.6,1.1,1,2.2,1.2,3.4c0.2,1.2,0.3,2.4,0.1,3.6c-0.3,2.4-1.4,4.7-3.1,6.4
						c-1.7,1.7-3.9,2.8-6.2,3.1c-0.5,0.1-1.2,0.1-1.6,0.1c-0.5,0-0.9,0-1.4,0c-0.9,0-1.8-0.1-2.6-0.2c1.1-0.1,0.6,0.5,0.5,0.4
						c-4,0-3.8-0.5-6.4-0.4c-0.3-0.3-3.2,0.1-5.9,0.2c-1.4,0.2-0.7-0.1,1.6-0.2c-3.7,0.3-18.5,0.7-27,0.3c0.1,0.1-1.2,0.3-2.8,0.4
						c-1,0.1-1.1,0.1-1.5,0.2c-0.3,0-0.6,0.1-0.8,0.1c0-0.2,0-0.3,0-0.5c-0.3-0.1-0.8-0.1-1.3-0.1c0.2,1,0.4,2.3,0.2,2.4
						c0.2,0.5,0.2,0.3,0.1-0.2c-0.1-0.5-0.3-1.4-0.5-2.4c0.6,0,1.2-0.1,1.7-0.1c0.3,0,0.6,0,0.8,0c0.1,0,0.3,0,0.4,0
						c0.2,0,0.4,0,0.5,0c1.3,0,1.8,0,0.2,0.1c-0.1,0-0.3-0.1-0.5-0.1c-0.1,0-0.2,0-0.3,0c-0.1,0-0.1,0-0.2,0c-0.3,0-0.6,0-0.9,0.1
						c-0.6,0.1-1.2,0.2-1.6,0.3c0.1,0.4,0.1,0.6-0.1,0.3c0.1,0.6,0.2,1.1,0.4,1.7l0.2,0.8l0.3,1.4c0.4,1.9,0.7,3.7,0.8,5.6
						c-0.1-1.1-1.2-3-0.6,0.1c1,5.5,0.5,1.5,1.4,6l0.7,2.8c0.5,0.1,0.8,4.9,0.9,2.8c-0.2,0.7,1.6,8,0.7,7.5l-0.7-0.7
						c0.4,2.4,1.3,3.8,1.8,5.6c0,0.3,0,1-0.1,0.9c0.9,0.2,0.9,5.7,2,8.4c0.5,5.1,2.1,12.7,2,15.2c0.9,3.8,1.8,7.3,2.4,11.7
						c-0.2-0.9-0.5-2.1-0.7-2.3c0.2,2.8,0.6,3.4,1.1,5.9c-0.2-0.5,0.4,5.6,0.6,8.7c0.9,3.8,1.2,2.4,1.5,2.7
						c-0.3,3.6,2.4,10.7,2.3,15.2c-0.3-1.3-1.4-5.5-1-2.3c-0.1,1.3,0.1,2.6,0.4,3.9c0.1,0.3,0.2,0.7,0.3,1c0.1,0.2,0.2,0.5,0.2,0.7
						c0.2,0.5,0.3,0.9,0.5,1.4c0.4,0,0.9-0.1,1.3-0.1c0.2,0,0.4,0,0.7,0c0.3,0,0.6,0,1,0.1l-0.7-0.4c-0.1-0.1-0.2-0.2-0.3-0.4
						c0.1,0.1,1.1,0.1,2,0.1c0.9,0,1.9-0.1,2.7-0.1c1.7-0.1,3-0.1,2.7,0.3c1.9-0.3,6.7,0.2,6.1-0.5c9.4,0.6,22.8-0.4,28.6,0.9
						c1.3-0.1,4.7,0,4-0.4c-2.2-0.4-3.1,0.3-4,0c1.2,0,1.5-0.2,1.6-0.3c2.9,0.2,5.2,0.2,2.5,0.8c3.2,0.2,4.9-0.1,6.8-0.4
						c0.5-0.2,1-0.3,1.5-0.4c0.4,0.1,0.2-0.6,0.3-1c0-0.5,0.1-1,0.2-1.5c0.1,0.1,0.2,0.1,0.3-0.1c0-0.1,0-0.1,0.1-0.3
						c0-0.1,0.1-0.3,0.1-0.5c0.1-0.4,0.2-0.9,0.2-1.5c0.1-1.6,0.2-3.1,0.4-4.7c0.6-2.7,1-3.4,1.2-3.4c0.2-0.1,0.4,0.5,0.6,0.5
						c0.3-1.4,0.7-3,1-4.4c0.4-1.4,0.7-2.6,0.7-3.2c0.5-1.1,1.1-2.1,1.7-3.1c-1.3,2.3,0.5-2.4,0.9-3.7c-0.1,0.4-0.3,0.9-0.4,1.3
						c0.4-0.4,1.5-3.6,2.2-5.1c-0.5,0.2-1.9,3.3-2.7,5.1c0.3-1.5,1.3-3.6,1.8-5.5c0.2,0.8,2.3-4.2,3.5-6.2c1.3-2.3,1.1-2.8,1.5-3.5
						c0.3,0.1,2.3-3.7,1.5-1.8c-0.4,0.8-1.3,1.7-1.8,3.1c1.1-1.4,1.3-1,2.9-4.3c1.3-2.4-1.2,0,1.9-4.1c-0.7,1.2-0.6,1.5-1.1,2.5
						c0.9-1.3,2-2.6,3-3.8l-0.2-0.4c0.5-0.5,0.2-0.1,0.5-0.3c0.4-1.5,4.5-5.9,4.8-7.1c0.4-0.5,0.8-0.9,1.3-1.4
						c0.4-0.5,0.9-0.9,1.4-1.3c0.9-0.9,1.9-1.7,2.7-2.5l-0.3,0.3c1.1-0.9,2.3-2,3.5-3.2c1.2-1.1,2.3-2.2,3.1-3.1l0,0.2
						c1.2-1,4.1-3.4,5.5-4.7c3.4-2.1,2,0.6,5.3-2.3c0.8-0.6,1.5-1.1,2.2-1.5c0.6-0.5,1.1-0.9,1.4-1.2c0.6-0.7,0.6-1-0.1-0.7
						c1.6-0.9,3.3-1.7,4.9-2.6c1.7-0.9,3.4-1.7,5.1-2.6c3.5-1.6,6.9-3,10.3-3.7c0.9-0.5,0.3-0.4,2.3-1.1c5.1-1.4,10.6-2.8,15.9-3.6
						c5.3-0.8,10.4-0.9,14.6-0.5c-3.1,0.2-0.2,0.4-0.1,0.7c2.5-0.3,3,0.5,3.9-0.2c-0.2-0.4,0-0.6-3-0.8c3.2-0.1,7.2,0.1,10.8,0.5
						c0.9,0.1,1.8,0.2,2.6,0.3c0.8,0.1,1.6,0.3,2.4,0.4c1.5,0.3,2.7,0.5,3.6,0.9c-1.7-0.6-0.3-0.4,1.1-0.2c-0.3,0.3,0.7,0.7,2.2,1.1
						c1.5,0.4,3.5,1,5.2,1.3c0.2-0.1,0.4-0.2,0.6-0.2l2.1,1.1c1.3,0.3,1.7-0.4,4.9,1.2c0.1,0.2,0.3,0.4,0.8,0.7
						c0.9,0.2,1.9,0.5,2.9,0.9c1,0.3,2.1,0.7,3.1,1.1c2.1,0.9,4.2,1.8,5.9,2.9c0.9,0.7,1.7,1.3,2.6,2.1c1.5,0.8,4.1,2,1.6,0.3
						c5.7,3.8,9.1,6.5,10.5,8.2c5,3.1,10.5,7.8,15.5,13.3c5,5.5,9.4,11.9,12.6,17.9l-0.4-0.2c1.5,3.4,1.3,1.4,2.4,3.8
						c-0.8-0.9,0.7,2.8-0.9,0.3c2,4.8,3.3,5.9,4.7,9c0.6,0.3-1.3-2.4-0.6-2c0.1,0.1,0.3,0.6,0.6,1.3c0.2,0.7,0.5,1.5,0.8,2.4
						c0.3,0.9,0.6,1.7,0.9,2.4c0.3,0.7,0.5,1.2,0.7,1.4c0.2,1.3-0.5,0.5-1-0.1l1.2,3c0.2,2-0.7-0.1-1.7-2.1c-0.9-2-2-3.9-1.7-1.9
						c0.4,0.9,0.6,1.8,1,2.7c0.1,1.4-0.6-0.4-1.1-1.6c-0.2-0.6-0.5-1.1-0.5-1c0,0.1,0.2,0.8,0.7,2.5c1.3,2.9,2.7,5.3,2.2,2.5
						c1.8,6.3,2.2,2.6,3.6,9.6c0,1-0.2-0.4-0.6-1.9c-0.3-1.5-0.7-3-0.8-2.3c0.1,1.7,0.6,3.3,0.9,4.9c0.2,0.8,0.4,1.6,0.5,2.4
						l0.1,0.6c0,0.2,0.1,0.4,0.1,0.5c0,0.2,0,0.4,0.1,0.6c0-0.9,0.2-1.2,0.4-0.8c0.2,0.2,0.4,0.7,0.5,1.1c0,0.8-0.2,0.8-0.3,0.6
						c-0.1-0.1-0.1-0.1-0.1,0c0,0.1,0,0.2,0,0.4c0,0.1,0,0.2,0,0.3c0.1,0,0.2,0,0.3,0c0.3-0.2,0.8-0.3,1.1-0.4
						c0.2-0.1,0.2-0.3-0.2-0.4c0.2-0.2,0.2-0.3,0.3-0.3c0.6,0,1.3,0,2,0c1.4,0.1,3,0.2,4.3-0.1c1.6,0.5-5.2,1.2,0.3,1.5
						c-0.9-0.5,6.8-0.7,3.9-1.5c2.2,0.1,2.4,0.6,0.8,0.9c3.1,0.3,7.5-0.9,8.5,0.1l1.1-0.5c1,0.2,2.4,0.3,3.9,0.6
						c2.7,0,8.8-0.7,8.5,0.1c0.9-0.1,7.1,0,4.7-0.6c-3.9-0.3-4.5,0.4-6.6-0.3c2.7,0.6,5.6-0.1,7.8-0.3l0.4,0.3
						c1.3-0.1,4.4-0.1,5.2-0.4c-1,0.2-0.5,0.4,0.6,0.5l1.4-0.5c2.7-0.1,3,0.1,3.3,0.3c0.2,0.1,0.3,0.2,0.7,0.3
						c0.2,0,0.5,0.1,0.9,0.1c0.2,0,0.4,0,0.7,0c0.1,0,0.1,0,0.2,0c0,0,0.1,0,0.1,0l-0.1,0l-0.1,0c0,0-0.2,0-0.2,0l-1,0.1l-2,0.2
						c0.4,0,1.1,0.1,2,0.1c0.4,0,0.8,0.1,1.3,0.1c0.2,0,0.4,0,0.6,0c0.1-0.2,0.1-0.4,0.1-0.6c-0.2-0.4-0.4-0.7-0.5-0.8
						c0-0.1,0-0.1,0-0.1c0,0,0,0,0,0c0-0.1,0-0.1,0.1-0.2c0-0.1,0.1-0.2,0.1-0.2c0.1-0.3,0.3-0.6,0.3-2.1c0,1.2-0.2,3,0,2.9
						c0,0,0.1,0.1,0.2,0c0,0,0.1-0.1,0.1-0.1c0.1-0.1,0.1,0,0.2-0.4c0.4-1.2,0.8-2.9,1.1-4.9c0.3-2.5,0.3-6.5-0.6-2.6
						c0.3-2,1-4.7,1.1-3.1c0.6-4.5-0.6,0.5-0.2-3.4c0.5-1.5,1.8-6.3,2.7-9.2l0,4.1l0.5-2.7c0,3.5,0.7-1.7,1,0.4
						c0.4-1.8,0.6-4,0.7-5.8c-1.9,5.2-0.3-6.2-1.4-4.8c1-7.3,2.9-4.2,2.8-12c-0.4,1.2-0.5-2.5-1,2.1c0.9-4.5-0.4-3.2,0.9-8.5
						c-0.3,4,1.6-4.1,1.2,1.7c-0.2-0.4-0.8,3.2-0.8,4c0.6-1.8,0.8,0.5,1.6-4.1c0.4-2.8,1-6.7,0.5-6.2c-0.5,0-0.7,4.3-0.9,2.4
						c0.8-5.7,1.7-6.5,1.2-9c-0.5,3.6-1.2,4.4-1.5,4.3l0.5-4.2l0.2,0.9c1.4-6.6-0.3-2.1,0.9-8.5l1.2-2.9c0.3,1.6-1.8,9.3-0.7,8.3
						c0.7-4.2,0.5-5.6,1.4-9.6c-0.1,0.9-0.2,2.1-0.3,3c0.3-1.5,1.8-2.8,2-8.9c0.2-3.1-0.2-0.9-0.5-1c1-6.7,1-8.8,1.7-13.1
						c0.5,1,1.4-7.6,1.2-2.7c-0.8,2.1-2.4,11.9-2.1,14.4c1.2-2.3-1,5.3-0.4,6.8c0.9-5.4,1.7-5,2.3-5.8c0.3-1.5,0.3-3,0.4-3.9
						c-0.4-0.7-0.7,1.2-1.2,1.3c1.1-6,1.8-11.8,1.9-15.2c0.6-2,1-1.3,0.6,1.1c0.3-1.8,0.6-3.7,0.9-5.6c-1.8,0-3.5,0-5.3,0
						c-2.4,0-4.8-0.1-7-0.1c4.5,0.8-7.7,0.2-4.6,0.9c3.7,0.2,6.9,0.7,4.8,1.1c-2.3-0.1,0.1-0.3-0.9-0.5c-2.9,0.4-4.6-0.7-7.5,0
						c6.6-0.3,1.3-1,2.5-1.6c-4.8,0.4,0.2-0.4-4.5-0.4c-4.8,0.3-10.6,0.6-15.9,0.8c-1.7-0.1-3.5-0.2-5.5-0.3c-1,0-2,0-3,0
						c-0.5,0-1,0-1.6,0c-0.6,0-1.2-0.1-1.8-0.2c-2.3-0.5-4.5-1.7-6-3.4c-1.5-1.6-2.4-3.6-2.6-5.4c-0.1-1.8,0.3-2.1,0.5-2.4
						c0.1-0.1,0.2-0.3,0.4-0.6c0.1-0.2,0.1-0.4,0.2-0.7c0.1-0.3,0.2-0.6,0.3-1c0.3-1,0.5-1.3,0.4-1.3c-0.1,0-0.3,0.2-0.5,0.5
						c-0.2,0.2-0.3,0.4-0.2,0.1c0-0.1,0.1-0.4,0.3-0.7c0.2-0.4,0.5-0.9,1-1.5c-0.1,0.2-0.2,0.4-0.2,0.6c0.2-0.4,0.8-1.2,1.7-2
						c0.9-0.8,2.2-1.6,3.6-2c0.7-0.2,1.4-0.4,2.1-0.5c0.7-0.1,1.4-0.1,1.9-0.2c1.1-0.1,2-0.2,2.4-0.5l-1.8,0.8
						c1.1,0.1,2.1-0.1,3-0.2c0,0.2,1.3,0.5-0.5,0.6c3.6,0.5,7.6-0.1,11.5-0.1l-2.5-0.5c6.7-0.4,11.2,0.1,17.7-0.1l-0.2,0.4l3.9-0.3
						c-0.9,0.4,2.6,0.7,4.7,0.3l-10.1,1.1c-2.8-0.3,3.1-0.5,1.3-1c-1.5-0.4-7.5-0.3-8.5,0.2c2.3,0,2.4,0,4.2-0.2
						c0.8,0.6-2.7,0.6-4.5,1c1.2,0,2.9,0.2,3.2,0c-2.4,0.3-4.8,0.3-8.7,0.4c2.7-0.2-1.5-0.4-0.4-0.6c-0.3,0.5-4.1,0.7-9,0.6
						c-1.7-0.3-4-0.2-6.6-0.1c-2.3,0.2-4.5,1.4-6.1,3.3c0.4-0.9,1.1-1.9,2.2-2.7c1.1-0.8,2.6-1.4,4.3-1.5c-1.8-0.2-2.7,0.1-3.7,0.5
						c-0.9,0.4-1.8,0.8-3.2,1.9c-0.5,0.8-0.7,1.5-1,2.5c-0.3,1-0.6,2.3-0.5,4.4l-0.4,0.2c0.1,1,0.4,1.6,0.6,2.2
						c0.3,0.5,0.6,1,0.9,1.4c0.3,0.4,0.7,0.8,1.2,1.3c0.5,0.5,1.1,1,2.1,1.6c0.8,0.5,1.8,0.8,2.7,0.9c0.9,0.1,2.2,0.1,3.3,0.1
						c2.3,0,4.5,0,6.7,0.1c4.4,0,8.5,0,12,0.1l0.3,0.4c3.9-0.9,13-0.3,18.2-0.7c1.7,0.1,3.5,0.1,5.3,0.1c2.4,0,4.7,0,7,0
						c-0.3,1.8-0.6,3.6-0.8,5.3c-0.2,1.4-0.5,2.8-0.7,4c-0.4,2.3-0.8,4.2-1.2,5.5c-2.3,15.6-4.3,29.2-7.1,45.2l-0.1-2.8
						c-0.1,2.9-0.6,1.8-1,4.6c1-3.2-0.1,4,0,6.1c-1.7,7.1-2.7,16.3-3.4,22.7l-0.4,0.2c-0.1,3-0.6,6.1-1.2,9.4
						c-0.3,1.7-0.7,3.4-1,5.1c-0.2,1-0.4,2-0.6,3c-0.2,1.3-0.5,2.5-0.7,3.8c-1.1,0-2.2,0-3.3,0c-0.6-0.1-1.4-0.2-2.4-0.3
						c-0.8-0.1-1.8-0.2-3-0.2c-4.4,0.7-6.7,0.6-13.1,1c-4.7,0-12.3-0.2-17.1-0.4c-4.4,0.2-8.9,0.4-13.3,0.4c-2.4,0-4.8,0.1-7.3,0.1
						l-2.7,0l-1.3,0c-0.2,0-0.5,0-0.6,0l-0.1-0.6c-0.2-1.6-0.4-3.2-0.6-4.9l-0.1-1.2l0-0.3l0-0.2l-0.1-0.4l-0.3-1.6
						c-0.2-1.1-0.3-2.2-0.6-3.3l-0.7-3.2c-0.2-1.1-0.6-2.1-0.8-3.2l-0.4-1.6l-0.5-1.6c-0.4-1.1-0.7-2.1-1.1-3.2
						c-0.8-2.1-1.6-4.2-2.6-6.2l-0.1-1.4c-2-3.9-4.2-7.9-6.7-11.9c-2.5-3.9-5.3-7.8-8.2-11.4c-3-3.6-6.1-6.9-9.3-9.9
						c-1.6-1.4-3.2-2.9-4.8-4.1c-0.8-0.6-1.6-1.2-2.4-1.8c-0.8-0.6-1.6-1.1-2.3-1.6l1.6,0.2c-0.9-0.7-1.9-1.5-2.9-2.2
						c-1-0.6-2-1.2-2.8-1.7c-1.7-0.9-2.9-1.3-2.5-0.7c-3.8-2.7-10.4-5.2-12.9-6.8c-4.4-1.9-5.6-1.8-9.3-2.8c-1.1-0.4-2.2-0.7-3.1-1
						c-1-0.3-1.9-0.6-2.8-0.8c-1.8-0.4-3.3-0.8-4.9-1.1c-1.6-0.2-3.1-0.6-4.9-0.7c-1.7-0.2-3.6-0.4-5.9-0.5l2.2,0.2
						c1-0.1,1.1-0.5-1.1-0.7c-3.3-0.2-12.3-0.5-9,0.4c-4.8-0.3-10.4,0.3-15.8,1.3c-5.4,1-10.7,2.5-15.2,3.6c0.4,0,0.1,0.2-0.5,0.5
						c-0.5,0.3-1.3,0.6-1.7,0.9c-7.8,2.8-15.9,6.7-21.1,10.8c-1.2,0.6,1.5-1.6-1.3,0.3c-1.6,1.3,0.2,0.3-1.8,1.9
						c-5.3,4.2-10.5,8.7-15,13.6c-4.6,4.9-8.6,10.1-11.7,15.5c-5.4,9.6-9.4,20.1-11.5,31c-0.3,1.3-0.5,2.7-0.7,4.1
						c-0.2,1-0.5,3.7-0.7,5.9l-0.2,1.7l-0.1,0.8l0,0.4c0,0.1,0,0.3-0.2,0.3c-1.3,0-2.5,0-3.8,0c-1.8,0-3.7,0-5.5,0
						c-5.6,0-11.2,0-16.6,0l0.2-0.2c-7.3,0.7-17-0.8-22.8,0.4c-1.7-0.2-6.6-0.1-5.3-0.5c-1.2,0.1-2.7,0.2-4.3,0.2
						c-2.4,0-5.1,0-7.8-0.1c-0.5-3.3-1-6.7-1.6-10.2c-0.4-2.5-0.9-5.1-1.5-7.4c0.1,0.8,0.2,1.2,0.5,2c-1-8.4-2.8-15.7-3.9-24.5
						c0.2,0.9,0.6,2.5,0.8,2.7c-0.2-3.5-2.2-7.9-1.6-9.9c-0.3-1.9-0.7-1.3-0.5-0.1c-1.4-9.7-3.2-19.6-5-29.6
						c-1.9-10.2-3.7-20.5-5.6-30.6c-0.5-3.4-0.8-5.9-1-7.5c3.1,0.1,4.4,0.3,4.9,0.4c0.5,0.1,0.3,0.3,0.3,0.3c0,0.1,0,0.1,1,0.1
						c0.5,0,1.3,0,2.4-0.1c0.7,0,1.7-0.1,3-0.2c0.9,0.2,0.7-0.4,0.8-0.2c4.4-0.3,6.9,1.1,10,0.6c-1.3-0.6,2.1-0.3,2.1-0.7
						c8.9,0.4,10.7,0.9,17.7,0.5L114,271c2.1-0.2,4.2-0.3,6.4-0.4c1.1,0,2.2-0.1,3.2-0.1l1.6,0l0.8,0l0.6-0.1c1.5-0.2,2.9-0.9,3.8-2
						c0.5-0.5,0.8-1.1,1-1.7c0.2-0.6,0.3-1.2,0.3-1.8c0.3-1.9-0.2-3.8-1.5-5.1c-0.6-0.7-1.4-1.2-2.3-1.5c-0.4-0.2-0.9-0.2-1.3-0.3
						l-0.7,0l-1.1,0c-5.8,0-11.7,0.1-17.4,0.1c-12.7,0.1-25.3,0.2-37.8,0.3c-1.3-7.4-2.6-14.8-3.8-22.1c5.7,0,11.3-0.1,17-0.1l6.1,0
						l1.5,0l0.6,0c0.1,0,0.3,0,0.4,0c0.6-0.1,1.1-0.3,1.6-0.5c0.5-0.3,0.9-0.6,1.4-1l2.2-2.2l4.3-4.4c2.9-2.9,5.8-5.8,8.7-8.7
						c31.1-30.8,61.1-61.4,92.9-92.5c7.9-6.8,8.5-7.4,16.3-15.7c-0.2,0.4-0.7,0.9-0.1,0.5c-0.1-0.9,5.7-5.7,6-7
						c4.9-4.8,9.6-9.5,14.3-14.3c5.6-5.7,11.3-11.3,17.1-17.2c2.6,2.6,5.5,5.5,8.4,8.4c-1.9-1.8-3.3-2.4-1-0.2l2.6,2.1l0.3,0.5
						c1.6,1.5,3.5,2.9,2.1,1.2c30.4,29.6,59,60.1,88.6,89.4c6.8,7.2,16.9,16.9,24.6,24.4c9.3,9.8,18.1,19.2,27.1,28.4
						c2.2,2.3,4.5,4.6,6.7,6.9l0.8,0.9l0.4,0.4c0.1,0.1,0.2,0.2,0.3,0.3c0.4,0.4,0.9,0.7,1.4,1c0.5,0.3,1.1,0.5,1.6,0.6
						c0.3,0.1,0.6,0.1,0.9,0.1c0.1,0,0.3,0,0.4,0l0.6,0c3.2,0,6.5,0,9.8,0c4.3,0,8.7,0,13,0c-0.5,3.3-1.1,6.7-1.6,10.1
						c-0.4,2.4-0.7,4.8-1.1,7.3c0,0-0.2-0.9-0.2-3.2c0-1.1,0-2.6,0.1-4.5c0-0.5,0.1-1,0.1-1.5c0-0.3,0.1-0.6,0.1-0.9
						c0-0.3,0.1-0.7,0.1-1c0.1-1.4,0.3-2.9,0.5-4.4C441.5,239.4,440.2,239.4,438.9,239.5z"/>
					<path class="st1" d="M429.3,255.7c-1.1-0.3-4.8-0.5-1.9-0.9C427.8,255,429.7,255.4,429.3,255.7z"/>
					<path class="st1" d="M412.2,275.3c0.1-0.1,1.4,0.1,1.7,0.2c-1.2,0-2.4,0.3-3.3,0.1C411.8,275.5,411.7,275.4,412.2,275.3z"/>
					<path class="st1" d="M433.1,276.1c-0.1,0-0.1-0.2-0.2-0.4c-0.5,0.1-1,0.2-1.5,0.2l-0.4,0l-0.2,0l-0.5,0c-0.7,0-1.3,0-1.9,0
						l1.9-0.1l0.5,0c0.1,0,0.1,0,0.2,0l0.4-0.1c0.5-0.1,1-0.2,1.7-0.2L433.1,276.1z"/>
					<path class="st1" d="M428.3,297c-0.6,2-0.6,1.4-0.2-1.3C428.4,295.6,428.3,296.5,428.3,297z"/>
					<path class="st1" d="M428.7,298.8c-0.3,1.9-0.6,2.9-1,3.8C428,302.5,428.3,298.1,428.7,298.8z"/>
					<path class="st1" d="M419.4,349c-0.2,1.2-0.4,3.9-0.9,5C418.9,352.8,419.1,348,419.4,349z"/>
					<path class="st1" d="M415.9,372.5c-0.1,0.8-0.3,1.1-0.3,1.9c-0.4,1.4-0.3-0.1-0.2-1.3L415.9,372.5z"/>
					<path class="st1" d="M96,379.1l0.2,0.5l0.7-0.1c-0.1,0.1-0.2,0.2-0.4,0.3l-0.4-0.1L96,379.1z"/>
					<path class="st1" d="M125,252.3c-2.6,0.2-1.8-0.3-2.2-0.3C125.1,252,121.9,252.4,125,252.3z"/>
					<polygon class="st1" points="103.3,232.4 102.8,233 102.5,232.4 					"/>
				</g>
			</g>
		</g>
		<g>
			<g>
				<g>
					<path class="st1" d="M401.5,475.6c0.9-0.1-0.5-0.5,0.6-0.2C402,475.6,401.8,475.7,401.5,475.6z"/>
					<path class="st1" d="M403.4,471.6c-1-3.2,1.2-6.8,0.7-10.1c0-0.4,0.8,0.2,0.8-0.6c-0.6-3.3,0.9-8.1,2.4-11.7l0.2,0.3
						c0.3-0.7-0.3-1.7-0.1-2.4c0.2,0,0.2,0.3,0.4,0.1c-0.4-0.3,0-1.4-0.3-1.8c0.2-0.3,0.6-0.2,0.9-0.5l-0.5-0.5
						c-1.1-1.4,0.6-2.9,0.2-4.7c0.1,0.1,0.2,0.3,0.3,0.2c-0.3-2.8,0.4-6.1,0.6-9.1c0.2,0.1,0.5,0.3,0.7,0.2c-0.5-0.2-0.5-1.2-0.5-2
						c0.6-0.3-0.3-1.5,0.2-2.3l0.1,0.1c-0.5-0.8,0.5-1-0.1-1.6l0.5-0.4c-0.8-0.4,0.6-0.9,0.3-1.6l-0.2,0c-0.1-0.6,0.3-0.8,0.3-1.3
						l0.1,0c0-1.2,0.5-1.8-0.1-1.9c0.6-0.3,0,1.2,0.9,0.7c0-3.9,0.8-7.9,1.4-11.7c0.3-0.4,0.5-0.7,0.7-0.7c-0.1-0.4,0.1-1.5-0.1-1.9
						c0,0.1,0.4-0.2,0.4-0.4c0.4-0.7-0.6-0.8-0.2-1.5c0.1,0.3,0.3,0.4,0.6,0.2c-0.4-0.6-0.2-1.4-0.2-2.1c0.1,0,0.1,0.2,0.4,0.1
						c-0.2-0.2-0.2-0.5-0.1-0.9c0.1-0.3,0.3-0.7,0.2-1c-0.1,0-0.2,0-0.3,0.1l0.6-0.3l0,0c0,0,0,0,0,0c-0.8-0.4-1.2,0.8-1.9,0.5
						c0.3-0.1,0.4-0.3,0.6-0.4c-0.8,0.3-1.4,0.4-2,0.5c-0.6,0.1-1.2,0.1-1.6,0.2c0.1-0.1,0.1-0.2,0.1-0.2c-1,0.1-2.2-0.1-3.3,0.2
						c-0.4-0.2,0.1-0.9-1-0.8c0,0.7-1.9,0.3-1.3,1.1c-1-0.1-2.5-0.4-3.1-0.1c0.4-0.3-0.5-0.9,0.3-1l-0.6-0.4
						c0.1-0.3,0.6,0.1,0.4-0.3c-0.4,0-1.6,0.3-1.9,0.2c-0.7,0.5-1.4,1.3-2.6,1.4c0.6-0.3-0.3-0.8,0.1-0.9l-1.7,1.4
						c-0.4,0-0.1-0.6-0.7-0.4c0,0.2-0.2,0.3-0.4,0.5c-0.2-0.1-1.7,0.2-1.8-0.5c-0.2-0.3,0.7-0.2,0.2-0.4c-0.7,0-0.8,0.3-1.5,0.3
						l0-0.1c-0.5-0.1-1.4,0.3-0.9,0.7c0.3,0-0.1-0.4,0.4-0.2c-0.3,0.4-1.2,0.5-1.9,0.6c0.3-0.1,0.2-0.3,0.3-0.5
						c-1,0.6-2.1,0.8-3.2,1c0,0.3,0.4-0.6,0.6-0.4c-1.4-0.5-2.9,0.7-4.1,0c0.2-0.1,0.1,0.5,0.1,0.4c-0.7,0-0.7-0.5-1.1-0.4
						c0-0.3-0.6,0.1-1,0.2c-0.2,0.2-0.1-0.1,0.3-0.2c-0.6,0.3-3.2,0.7-4.7,0.3c0,0.2-0.9,0.7-1.3,0.7l0.1-0.5
						c-0.3-0.3-1.1,0-1.2-0.4c-0.7,0.6,2.8-0.5,1.8,0c-0.3-0.4-1.4,0.7-1.2,0.1c-0.7,0-1.3,0.5-2,0.1c0.2,0.1,0.6-0.6,0-0.6
						c-1,0.1-0.3,0.2-1.1,0.4l-0.5,0.2c0,0.4-0.9-0.1-0.5,0.4c-0.1-0.4-1.4,0.2-1.3-0.5l0.1-0.6c-0.4,0-0.7,0.6-1,0.9
						c-0.1-0.1-0.2-0.2-0.1-0.3c-0.1,0.9-1-0.1-1.5,0.6c-0.9-0.3-2.2,0-2.7-0.6c-0.3,0.1-0.7,0.3-1,0.4l-0.2,0.1c0,0-0.1,0-0.1,0
						c-0.1,0-0.2,0-0.3-0.1c0.1-0.1,0.2-0.1,0.2-0.3c-0.3-0.3-0.4,0-0.5,0.1c0-0.1-0.7-0.5-1.3-0.8c-0.3,0.3,0.3,0.7,0.5,1
						c-0.3-0.3-0.5-0.3-0.7-0.3c0.1,0.5,0.6,1.1,0,1c-0.1-0.2-0.4-0.9-0.7-0.7c-0.4-0.1-0.3,0.3-0.1,0.6c0.2,0.4,0.5,0.6,0.3,0.9
						c0.2,0,0.5,0,0.7,0c-0.2,0.1-0.1,0.3-0.1,0.4c0.1,0.3,0.1,0.5-0.3,0.5c0.3,0.3-0.2,1.2,0.5,1.1c-0.6,1.6,0.4,4-0.9,5
						c0.1,0.2,0,0.8,0.4,0.7c0.4-0.4-0.3-0.5,0-0.7c0,0.2,0.2,0.3,0.3,0.3c-0.2,0.5-0.2,0.9-0.8,0.4c-0.4,1.1,1.2,1.2,0.9,2.6
						c-0.3-0.1-0.4,0-0.4,0.5l0.5,0.8c-0.1,0.9-0.7,0.5-1.2,0.6c0.1,0.5,0.1,1.1,0.4,1.3l-0.6,0.6c0.5-0.4,0.3,0.4,0.4,0.6l-0.1-0.2
						c-0.2,0.1-0.1,0.7,0,1c0.3-0.1,0.4-0.7,0.5-1c0.2,0.3,0.2,0.6,0.4,1c-0.5-0.1-0.3,0.8-0.4,1.2c-0.1,0.5,0.4,0.5,0.4,0.6
						c-0.3,0,0,0.7-0.4,0.4c-0.1-0.2,0.2-0.4,0-0.6c-0.2,0.3-0.6,0.3-0.3,0.9c0.2,0.5,1-0.1,0.7,0.8c-0.1-0.2-0.3-0.3-0.5-0.5
						l-0.3,0.8l0.4,0c-0.1,0.1-0.2,0-0.2,0.1c0.5,0.2,0.1,1.3,0.7,1.5c0,0.4-0.3,0.9-0.4,1.3l0-0.1c-0.3,0.5-0.1,1.1,0.2,1.5l-0.1,0
						c0,0.3,0,0.9,0.3,1.2c-0.3,0.7-1.7,0.2-1.1,1c0,0.7,0.8,1.1,1.1,0.8c-0.3,1.2,0.4,2.6-0.3,3.8c0.2,0.2,0.3,0.1,0.4,0.4
						c-0.2,1.8,0.5,3.8-0.3,5.2c-0.2-0.5-0.4,0-0.7,0c0.4,0.4-0.4,0.5,0.3,0.7c0.4,0,0.6,0,0.8-0.5c0.2,1.1,0.2,2.7-0.2,3.3
						c0.2-0.3,0.3-0.1,0.4,0.2c-0.6-0.1-0.7,0.7-0.5,1.3l0.4,0.1l-0.4,0.4c0.1,0.2,0.8,0.3,0.4,0.9c-0.2,0-0.3,0.1-0.4,0.2
						c0.3,0.6,0.9,1.5,0.5,2.2l-0.6,0.6c0.1,0.3,0.4,0.8,0.6,0.3c-0.3,1.1-0.4,1.9-0.9,2.3c1.2,2,1.3,4.9,1.2,7.2l-0.3-0.1
						c-0.3,0.6,0.5,0.3,0.3,0.8c-0.3-0.2-0.6,0.5-0.9,0c-0.3,0.9,0.5,1.1,0.6,1.7c0.4,0.1-0.2-0.5,0.2-0.4c0.1,0.1-0.3,1.2,0.3,1.4
						c-0.2,0.2-0.7,0-0.9-0.1l0.3,0.5c-0.7,0.7-1.2-1.5-2.1-0.8l0.1,0.5c-0.6,0.5-0.7-1.3-0.9-0.1c0.3,0.5,1.1,1,1.4,0.5
						c0.2,1.1,1.4,0.5,1.3,1.7c-0.3,0.3-0.1-1-0.6-0.7c-0.5,0.6,0.3,1.1,0.1,1.7c0.2-0.6,0.8-0.1,0.9,0.3c-0.3,0.6-0.6-0.4-0.6,0.5
						c0.3,0.1,0.6,0.9,0.8,0.3c0.8,0.3-0.2,0.9,0.4,1.4c-0.5,0.3-1.2-0.9-1.5,0.1c0.5-0.2,0.7,1.2,1.5,0.7c-0.1,0.4-0.6,0.4-0.9,0.1
						c-0.2,0.3,0.1,0.6,0.2,0.9c0.1,0.3,0.2,0.5-0.3,0.5c0.2,0,0.4,0,0.5,0c-0.2,0.1-0.3,0.1-0.6,0.3c0,0.1,0.2,0.2,0.3,0.2
						c0.1,0.1,0.1,0.1-0.3,0.4c0.1,0,0,0.4,0.6-0.1c0.3-0.4-0.4,0,0.3-0.4c-0.6,0.4,0.1,0.2,0.3,0l-0.3,0.3c0.1,0,0.1,0,0.2-0.1
						c0.1,0,0.1-0.1,0.2-0.2c-0.2,0.2-0.4,0.4-0.4,0.5c0.2-0.2,0.3-0.3,0.5-0.5c0.3-0.2-0.6,0.8-0.3,0.7c-0.1,0.1-0.3,0.2-0.4,0.4
						c0.1-0.1-0.1,0.4,0.2,0.2c0.3-0.4,0.6-0.9,0.8-1.3c0.1-0.2-0.1,0.5,0,0c-0.1,0.2-0.2,0.3-0.3,0.5c-0.1,0.1-0.2,0.7,0.1,0.7
						c0.1-0.1,0.2-0.3,0.2-0.5c0.1-0.1,0.1-0.2,0.1-0.3c0,0-0.1-0.1-0.1-0.1c0,0,0-0.1,0-0.1c0,0,0,0,0.1,0c0.1,0,0.2,0.1,0.2,0.1
						c0.1,0.1,0.2,0.2,0,0.4c0.8-0.1-0.1-0.5,0.6-0.7c0.3,0.3,1.1,0.7,1.7,1.1l-0.7,0.7l0.5,0c-0.6,0.6,0.3,0.4,0,1
						c0.3,0.1,0.7-0.1,1-0.3c-0.9-1,1.1-1.3,0.8-2.2c1.3-0.2,0.8,2.1,2.1,0.8c-0.2-0.2,0.4-0.9-0.4-0.6c0.8,0.1,0.5-0.9,1.5-0.5
						c-0.7,0.4,0.7,0.9-0.3,1.4c0.1-0.3-0.6-0.2-0.7-0.1c0.3,0.3-0.1,0.9,0.7,0.9c0.5-0.1,1.2-0.1,1.1-0.6c0-0.5-0.8,0.1-0.4-0.5
						c1-0.2,1.2,0.6,1.6-0.3c-0.6,0.1-0.8-0.5-0.8-0.8l0.7-0.2l-0.1,0.3c1.2,0.2,0.3-0.6,1.5-0.5l0.5,0.7c-0.3,0.6-1.7-0.3-1.4,0.7
						c0.7,0,1-0.4,1.7-0.2c-0.2,0.1-0.4,0.1-0.5,0.2c0.3,0,0.5,1.3,1.6,0.5c0.5-0.3,0.1-0.3,0.2-0.7c1.2-0.1,1.5-0.5,2.3-0.5
						c-0.2,0.7,1.3,0.1,0.5,0.8c-0.4-0.4-2.1-0.4-2.5,0.3c0.4,0.8-0.9-0.1-1.2,0.7c0.9,0,0.9,0.8,1.1,1.3c0.3,0,0.5-0.2,0.7-0.3
						c0.1-0.5-0.2-0.5-0.3-1c1.1,0.1,2.1-0.1,2.7-0.6c0.4,0.2,0.2,0.7-0.2,0.8c1.3-0.1,2.6-0.1,3.8,0.1c-0.8-0.8,1.3-0.2,0.8-0.9
						c-0.6-0.2-1.2-0.7-0.8-1.1c0.4,0.1,0,0.3,0.2,0.5c0.5-0.4,0.8,0.7,1.3,0c-1.2,0.3-0.2,1-0.4,1.6c0.8-0.4,0,0.4,0.8,0.4
						c0.8-0.3,1.8-0.6,2.8-0.8c1.2,0.6,2.9,0,4,0c0.5,0.3,0.2,1,0.8,1.1c0.7,0-0.5-0.8,0.5-0.4l-0.1,0.1c0.3-0.2,1.9,0.5,2.2-0.5
						l-0.3,0.8c0.2,0.1,0.4-0.1,0.5-0.2c0,0.2,0.2,0.5-0.1,0.6c0.6,0.5,1.3-0.1,2-0.1l-0.4-0.5c1.2-0.4,2,0.1,3.1-0.1l0,0.4l0.7-0.3
						c-0.2,0.4,0.5,0.7,0.8,0.3l-1.7,1.1c-0.5-0.3,0.5-0.5,0.2-1c-0.3-0.4-1.3-0.3-1.5,0.2c0.4,0,0.4,0,0.7-0.2
						c0.1,0.6-0.5,0.6-0.8,1c0.2,0,0.5,0.2,0.6,0c-0.4,0.3-0.8,0.3-1.5,0.4c0.5-0.2-0.3-0.4-0.1-0.6c-0.1,0.5-0.7,0.7-1.6,0.6
						c-0.6-0.6-1.6,0.4-2.6,0.2c0.4-0.6,0.9-1,1.5-1.2c-0.6-0.3-0.7,0-1.3-0.3c-0.3,0.4-0.5,1-1.3,1.3l0-0.4
						c-0.7,0.2-0.7,0.8-1.7,0.7c-1.6-0.2-3.2-0.2-4.4-0.3l0-0.4c-0.7,0.9-2.3,0.3-3.2,0.7c-1.5-0.4-3.4,0.4-4.2-0.3
						c-2.7,0.3-5.1,0.6-7.9,0.5l0.5-0.6c-0.5,0.4-0.3-0.3-0.8-0.3c0.6,0.5-0.7,0.6-1,1c-1.3-0.5-2.9,0-4,0.5l0-0.4
						c-0.3,0.2-0.6,0.3-0.9,0.3c-0.2,0-0.3,0-0.5,0c-0.2,0-0.5,0-0.7,0c-1-0.1-1.9-0.3-2.9-0.3c-0.1-0.2-0.2-0.5-0.8-0.5
						c-0.7,0.3-1.2,0.4-1.8,0.6c-0.1-0.4-0.2-0.9-0.5-1.7c0-1.3,0.2-3.4,0.4-4.6c-0.9-3.1-0.3-6.2-0.9-9.4l0.5-0.2
						c-1-3.1-0.1-6.9-0.6-9.6l0.8,0.3c0.3-0.8-0.2-1.9-0.8-1.7c0.2-0.8-0.4-2.1,0.3-2.6c0.2-0.8-0.4-1-0.5-1.7
						c0.3-1.7,0.2-2.3,0.1-3.9l-0.1,0.4c0.2,0.2,0.5,0.2,0.6-0.2c-0.2-0.6,0.2-2.2-0.8-1.6c0.6-1.7-0.5-4,0.3-5.7
						c-0.3,0.1-0.3-0.3-0.5-0.5c0-1.5,0.5-3.1,0.1-4.3c0.1-0.2,0.5,0.4,0.5-0.2c-0.1-0.4-0.3,0-0.5-0.5c-0.5-2.4,0.5-4.9,0.4-7.1
						c-0.5-3.9-0.3-8-0.3-11.8l0.2,0c-0.7-1.3,0.8-3-0.4-4c0.2-0.3,0.1-1.1,0.5-0.9c0-0.1-0.1-0.1-0.1-0.2c0-0.1,0-0.2,0-0.4
						c0-0.3,0-0.5,0-0.8c0-0.6,0.1-1.2,0.1-1.8c0.1-1.3,0.2-2.5-0.1-4.1c0,0.2,0,0.4,0.1,0.7c0.1-0.3,0.1-0.6,0.1-1c1.1,0.1,2,0,3,0
						c1,0,2.1,0,3.2,0.1c-0.3,0.1-0.7,0.1-0.7,0.3c0.5,0.2,1,0,1.5-0.2c0.3-0.1,0.4-0.1,0.6-0.1c0.1,0,0.2,0.1,0.3,0.4
						c0.3,0,0.2-0.5,0-0.4c3.4,0.4,7-0.2,10.5-0.4c2.5,0.6,0.2,1.6,2.1,0.9c0.2,0.2,0.1-0.4,0.1-0.2c0.8-0.3,1.2,1.1,1.7,0.6
						c-0.2-0.6,0.4-0.3,0.4-0.7c1.5,0.4,1.9,0.9,3.1,0.5l-0.1,0.3c1.4-0.9,3.1-0.4,4.3-1.4c7.9-0.2,15.4-0.7,23.1-0.8l1.9,0l3.2,0
						c2.1,0,4.2,0,6.3,0c-0.7,4.3-1.4,8.6-2.1,12.9c-0.5,2.7-1,5.3-1.6,8c-1.1,1.7-1.1,1.8-1.1,3.8c-0.1-0.1-0.1-0.2-0.3-0.1
						c0.6,0.2-0.2,1.4,0.4,1.7c-0.6,2.8-0.9,5.4-1.3,8.3c0-0.5-0.5-0.8-0.5-0.2l0.3,0.6l-0.2,0.1c0,0.4,0.3,0.8,0.6,0.5
						c-0.7,7.4-3.2,14.3-4.2,21.5c-0.6,1.6-0.7,4.1-0.9,6c-1.8,5.3-3.3,10.1-3.6,15.7C404.9,474.9,403.4,473.9,403.4,471.6z"/>
					<path class="st1" d="M400.4,475.6c-0.2-0.3-0.8-0.5-0.3-0.9C400.2,475,400.5,475.3,400.4,475.6z"/>
					<path class="st1" d="M383.3,472.2c0,0.1-0.2-0.1-0.3-0.2c0.2,0,0.4-0.3,0.6-0.1C383.3,472,383.4,472.1,383.3,472.2z"/>
					<path class="st1" d="M378.9,472c0.1-0.3,1-0.5,1.6-0.6L378.9,472z"/>
					<path class="st1" d="M374.8,470.8c-0.4-0.2-0.3-0.4,0.2-0.4C375.1,470.6,374.9,470.7,374.8,470.8z"/>
					<path class="st1" d="M374.5,471.5c-0.3,0-0.5-0.2-0.7-0.3C373.9,471.4,374.6,471,374.5,471.5z"/>
					<path class="st1" d="M365.6,470.7c-0.2,0-0.7,0.3-0.9-0.1C365,470.8,365.8,470.2,365.6,470.7z"/>
					<path class="st1" d="M362,471.1C362,471.1,362,471,362,471.1c-0.1-0.1,0-0.3,0-0.4L362,471.1z"/>
					<polygon class="st1" points="360,403.9 360.2,404.2 359.9,404.1 					"/>
					<path class="st1" d="M388,402.6c0.4-0.2,0.3,0.3,0.4,0.3C388,402.9,388.6,402.6,388,402.6z"/>
					<polygon class="st1" points="405.8,401.1 405.6,401.1 405.7,400.5 					"/>
				</g>
			</g>
		</g>
		<g>
			<g>
				<g>
					<path class="st1" d="M337.9,475.6c2.2-0.1-1.2-0.5,1.4-0.2C339,475.6,338.6,475.7,337.9,475.6z"/>
					<path class="st1" d="M340.1,467.2c-1.5-7,0-16.3-1-24c-0.1-0.9,0.8,0.2,0.6-1.8c-1.2-7.5-0.5-19.2,0.4-28.3l0.2,0.6
						c0.2-1.7-0.6-3.8-0.5-5.7c0.2,0,0.2,0.6,0.4,0.2c-0.5-0.5-0.2-3.3-0.6-4.1c0.2-0.7,0.6-0.7,0.8-1.6l-0.5-1.1
						c-1.3-2.9,0.1-7.1-0.6-11.1c0.1,0.2,0.2,0.6,0.4,0.3c-0.8-6.4-1.6-14.4-3.8-21.2c0.3,0.2,0.7,0.4,0.8-0.1
						c-0.3-0.1-0.7-0.7-1-1.4c-0.3-0.8-0.7-1.7-1.1-2.6c0.1-0.5-0.3-1.2-0.7-2.1c-0.5-0.9-1.1-1.9-1.4-3l0.2,0.1
						c-1.1-1.3-0.6-2.4-1.8-3.3l0-1.1c-1-0.3-0.7-2.3-1.7-3.4l-0.1,0.1c-0.7-1.1-0.8-1.8-1.5-2.8l0-0.1c-0.8-1.2-1.3-2.1-1.7-2.8
						c-0.4-0.6-0.6-0.9-0.9-0.7c-0.1-1.1,1.7,2.2,1.5,0.5c-5.5-7.5-11.8-14.6-19-20.4c-0.7-0.9-1.1-1.3-1.2-1.7
						c-0.8-0.5-2.9-1.9-3.8-2.2c0.3,0.2-0.3-0.6-0.7-0.9c-1.3-1.1-1.9-0.4-3.4-1.6c0.7,0.2,1,0.2,1-0.2c-0.8-0.2-1.7-0.6-2.5-1
						c-0.4-0.2-0.9-0.4-1.3-0.7c-0.4-0.2-0.9-0.4-1.3-0.6c0.3,0,0.7,0.2,0.8,0c-1-0.2-1.9-0.7-2.6-1.1c-0.8-0.5-1.6-0.9-2.4-1.1
						l0.8-0.1c-2.5-1.6-1.1,0.3-3.3-0.9c0.6,0.1,0.5-0.1,0.6-0.2c-1.2-0.1-2.7-0.6-4.1-1c-1.5-0.4-2.9-1-4-1.1
						c0.1,0,0.1-0.1,0.1-0.1c-1.2-0.3-2.5-0.7-3.7-1c-1.3-0.3-2.6-0.6-4-0.7c-1-0.3,0.5-0.8-2.2-1.2c0,0.4-1.1,0.2-2.1,0.2
						c-1,0-1.7,0-1,0.5c-2.2-0.5-5.8-1-7.3-0.8c1-0.3-1.1-0.9,0.8-0.9c-0.5-0.2-0.9-0.3-1.4-0.5c0.2-0.3,1.5,0.1,1-0.3
						c-1,0-3.8,0.2-4.6,0.1c-1.8,0.5-3.4,1.3-6.2,1.7c1.3-0.4-0.8-0.8,0.1-1l-1.9,0.9l-1.9,1c-0.9,0.2-0.3-0.6-1.6-0.2
						c0.1,0.2-0.5,0.4-0.9,0.6c-0.4,0-3.8,0.8-4.3,0.3c-0.5-0.2,1.5-0.5,0.4-0.5c-1.7,0.4-1.7,0.7-3.4,1.1l-0.1-0.1
						c-1.2,0.2-3.2,1.2-1.9,1.3c0.8-0.2-0.4-0.3,0.8-0.5c-0.7,0.7-2.6,1.2-4.2,1.8c0.5-0.3,0.4-0.5,0.6-0.7c-1,0.7-2.1,1.2-3.2,1.8
						c-1.1,0.6-2.2,1.1-3.4,1.7c0.1,0.3,0.7-0.9,1.1-0.9c-1.7,0.3-3.1,1.3-4.6,2.1c-1.4,0.9-2.8,1.7-4.1,2c0.4-0.3,0.4,0.3,0.4,0.2
						c-1.4,0.8-1.6,0.3-2.4,1c-0.2-0.2-1.1,0.7-1.9,1.4c-0.3,0.5-0.3,0,0.5-0.5c-0.3,0.3-0.8,0.7-1.4,1.2c-0.7,0.5-1.5,1.1-2.3,1.8
						c-0.8,0.7-1.7,1.3-2.6,1.9c-0.8,0.6-1.7,1.2-2.4,1.7c0.2,0.1-1.1,1.9-1.7,2.4l-0.1-0.5c-0.4,0.1-0.9,0.6-1.3,1
						c-0.4,0.4-0.8,0.7-1,0.6c-0.4,0.8,0.6-0.5,1.7-1.6c1.1-1.1,2.1-2.2,1.4-1.3c-0.7,0.1-1.9,2.6-2,1.8c-1.2,1.1-1.9,2.5-3.3,3.3
						c0.4-0.3,0.5-1.4-0.4-0.4c-1.5,1.7-0.3,0.6-1.4,2.1l-0.7,1c0.3,0.4-1.4,1.5-0.4,1.2c-0.5,0-2,2.6-2.4,2l-0.3-0.6
						c-0.6,0.8-0.5,1.7-0.8,2.4c-0.1,0.1-0.4,0.2-0.4,0.1c0.3,0.3-0.1,0.8-0.5,1.3c-0.4,0.5-1,1.2-1,1.9c-0.4,0.4-0.7,0.8-1.1,1.3
						c-0.3,0.5-0.7,1-1,1.5c-0.7,1-1.3,1.8-1.7,2.1c-0.5,1.5-1,2.9-2,4.4c0.1-0.4,0.3-0.8,0.2-1c-0.7,0.9-0.7,1.2-1,2.2
						c0-0.1-0.4,0.3-0.8,0.9c-0.4,0.6-1,1.4-1.4,1.9c-0.4,1.5,0.3,1.2,0.5,1.5c-1.3,1-1.1,4.3-2.4,5.7c0.1-0.5,0.3-2.3-0.3-1.1
						c-1.3,1.1-0.3,2.9-1.3,5l0.9-0.3c-0.4,0.4-0.5,1.3-0.6,2c-0.1,0.7-0.2,1.2-0.5,1c0.1,0.8-0.8,2.6-0.1,2.5
						c-1.4,3.6-1.1,9-2.5,11.3c0.1,0.6-0.1,1.9,0.2,1.6c0.4-0.9-0.2-1.3,0.1-1.6c0,0.5,0.2,0.6,0.3,0.7c-0.3,1.2-0.3,2.1-0.9,0.9
						c-0.3,1.3,0,2,0.3,2.8c0.3,0.8,0.6,1.6,0.5,3.3c-0.3-0.2-0.4,0.1-0.4,1.1l0.5,1.9c-0.1,2.2-0.7,1.3-1.2,1.3
						c0.1,1.2,0.1,2.6,0.4,3.2l-0.6,1.4c0.5-1,0.3,1,0.4,1.5l-0.1-0.6c-0.2,0.2-0.1,1.6,0,2.3c0.3-0.2,0.4-1.6,0.5-2.3
						c0.2,0.6,0.2,1.5,0.4,2.3c-0.5-0.3-0.3,1.9-0.4,2.9c-0.1,1.1,0.4,1.2,0.4,1.5c-0.3,0,0,1.8-0.4,0.9c-0.1-0.4,0.2-0.8,0-1.4
						c-0.2,0.7-0.6,0.6-0.3,2.1c0.2,1.1,1-0.3,0.7,1.8c-0.1-0.6-0.3-0.7-0.5-1.1l-0.3,2l0.4,0.1c-0.1,0.3-0.2,0.1-0.2,0.2
						c0.5,0.6,0.1,3,0.7,3.5c0,1-0.3,2.1-0.4,3l0-0.2c-0.3,1.2-0.1,2.7,0.2,3.7l-0.1-0.1c0,0.6,0,2.1,0.3,2.9
						c-0.3,1.6-1.7,0.5-1.1,2.3c0,1.6,0.8,2.5,1.1,1.9c-0.3,2.9,0.4,6.2-0.3,8.9c0.2,0.4,0.3,0.2,0.4,1c-0.2,4.3,0.5,9-0.3,12.5
						c-0.2-1.2-0.4-0.1-0.7-0.1c0.4,1-0.4,1.2,0.3,1.6c0.4-0.1,0.6,0,0.8-1.2c0.2,2.6,0.2,6.4-0.2,7.9c0.2-0.7,0.3-0.2,0.4,0.4
						c-0.6-0.2-0.7,1.7-0.5,3.1l0.4,0.2l-0.4,0.9c0.1,0.5,0.8,0.6,0.4,2c-0.2,0.1-0.3,0.2-0.4,0.4c0,0.2,0.1,0.4,0.1,0.6
						c0,0.2,0.1,0.5,0.1,0.5c0.1,0.1,0.2,0.3,0.2,0.4c0.1,0.2,0.2,0.4,0,0.8l-0.1,0.1c0,0.2,0,0.3,0,0.5c0.4-0.1,0.9-0.4,0.6-0.6
						c0.2,0.3,2.9,0.4,3.6,0.9c4.7-1.2,11.5-1.3,17-1.2l-0.2,0.3c1.5,0.3,0.8-0.5,1.8-0.3c-0.5,0.3,1.1,0.6,0,0.9
						c2.1,0.3,2.7-0.5,4.1-0.6c0.2-0.4-1.1,0.2-0.8-0.2c0.2-0.1,2.9,0.3,3.2-0.3c0.5,0.2,0.1,0.7-0.2,0.9l1.3-0.3
						c1.6,0.7-3.6,1.2-1.9,2.1l1.2-0.1c1.1,0.6-3.1,0.7-0.2,0.9c1.3-0.3,2.4-1.1,1.2-1.4c2.7-0.2,1.2-1.4,4.1-1.3
						c0.8,0.3-2.3,0.1-1.8,0.6c1.4,0.5,2.7-0.3,3.9-0.1c-1.3-0.2-0.2-0.8,0.7-0.9c1.5,0.3-1,0.6,1.1,0.6c0.3-0.3,2.3-0.6,0.6-0.8
						c0.8-0.8,2.2,0.2,3.3-0.4c0.7,0.5-2.1,1.2,0.1,1.5c-0.4-0.5,2.8-0.7,1.6-1.5c0.9,0.1,1,0.6,0.3,0.9c1.3,0.3,3.1-0.9,3.5,0.1
						l0.4-0.5c0.4,0.2,1,0.3,1.6,0.6c1.1,0,3.6-0.7,3.5,0.1c0.4-0.1,2.9,0,1.9-0.6c-1.6-0.3-1.8,0.4-2.7-0.3
						c1.1,0.6,2.3-0.1,3.2-0.3l0.2,0.3c0.6-0.1,1.8-0.1,2.2-0.4c-0.4,0.2-0.2,0.4,0.2,0.5l0.6-0.5c2.2-0.2,0.5,0.8,2.7,0.7l-1.7,0.4
						c0.4-0.1,1.1,0.4,2.1,0.2c0.4-0.4,1.2-0.9,1.5-1.3c1.2-0.2,0.6,0.5,1.8,0L240,471c-0.2,0.1,1.1,0.7,2.7,0.7c1-0.1,2.7-0.8,1-1
						c0.8,0,2,0.3,1.3,0.6c1.9-0.1-0.2-0.5,1.4-0.7c0.7,0.3,2.7,0.7,3.9,1.1l-1.7,0.7l1.1,0c-1.4,0.6,0.7,0.4-0.1,1
						c0.8,0.1,1.7-0.1,2.4-0.3c-2.2-1,2.5-1.3,1.9-2.2c3.1-0.2,1.9,2.1,5.1,0.8c-0.5-0.2,1-0.9-0.9-0.6c1.9,0.1,1.3-0.9,3.5-0.5
						c-1.7,0.4,1.8,0.9-0.6,1.4c0.2-0.3-1.3-0.2-1.7-0.1c0.8,0.3-0.2,0.9,1.8,0.9c1.2-0.1,2.8-0.1,2.6-0.6c-0.1-0.5-1.8,0.1-1.1-0.5
						c2.4-0.2,2.8,0.6,3.7-0.3c-1.5,0.1-1.9-0.5-1.8-0.8l1.7-0.2l-0.3,0.3c2.8,0.2,0.8-0.6,3.5-0.5l1.3,0.7
						c-0.6,0.6-3.9-0.3-3.4,0.7c1.8,0,2.3-0.4,4-0.2c-0.4,0.1-0.9,0.1-1.2,0.2c0.6,0,1.3,1.3,3.8,0.5c1.3-0.3,0.3-0.3,0.4-0.7
						c2.8-0.1,3.7-0.5,5.5-0.5c-0.4,0.7,3.2,0.1,1.2,0.8c-0.9-0.4-5-0.4-6,0.3c1,0.8-2.2-0.1-2.8,0.7c2.3,0,2.1,0.8,2.5,1.3
						c0.6,0,1.2-0.2,1.6-0.3c0.3-0.5-0.6-0.5-0.6-1c2.5,0.1,4.9-0.1,6.3-0.6c0.8,0.2,0.6,0.7-0.4,0.8c3-0.1,6.2-0.1,9,0.1
						c-1.8-0.8,3.2-0.2,1.9-0.9c-1.5-0.2-2.8-0.7-2-1.1c1,0.1,0,0.3,0.4,0.5c1.2-0.4,1.9,0.7,3.1,0c-2.7,0.3-0.5,1-1,1.6
						c2-0.4-0.1,0.4,1.9,0.4c2-0.3,4.4-0.6,6.6-0.8c2.7,0.6,7,0,9.4,0c1.3,0.3,0.4,1,1.8,1.1c1.6,0-1.2-0.8,1.2-0.4l-0.2,0.1
						c0.7-0.2,4.4,0.5,5.2-0.5l-0.7,0.8c0.5,0.1,0.9-0.1,1.2-0.2c0,0.2,0.5,0.5-0.2,0.6c1.5,0.5,3.1-0.1,4.8-0.1l-1-0.5
						c2.8-0.4,4.6,0.1,7.3-0.1l-0.1,0.4l1.6-0.3c-0.4,0.4,1.1,0.7,1.9,0.3l-4.2,1.1c-1.2-0.3,1.3-0.5,0.5-1
						c-0.6-0.4-3.1-0.3-3.5,0.2c1,0,1,0,1.7-0.2c0.3,0.6-1.1,0.6-1.8,1c0.5,0,1.2,0.2,1.3,0c-1,0.3-2,0.3-3.6,0.4
						c1.1-0.2-0.6-0.4-0.2-0.6c-0.1,0.5-1.7,0.7-3.7,0.6c-1.4-0.6-3.8,0.4-6.1,0.2c0.9-0.6,2.2-1,3.6-1.2c-1.5-0.3-1.6,0-3.1-0.3
						c-0.7,0.4-1.2,1-3.1,1.3l-0.1-0.4c-1.7,0.2-1.7,0.8-3.9,0.7c-3.8-0.2-7.7-0.2-10.6-0.3l-0.1-0.4c-1.6,0.9-5.4,0.3-7.5,0.7
						c-3.7-0.4-8,0.4-9.9-0.3c-6.5,0.3-12.2,0.6-18.9,0.5l1.1-0.6c-1.2,0.4-0.8-0.3-2-0.3c1.4,0.5-1.6,0.6-2.5,1
						c-3-0.5-6.8,0-9.5,0.5l-0.1-0.4c-2.7,0.8-5.9,0.1-9.2,0c-0.4-0.2-1-0.5-2-0.5c-1.8,0.7-2.8,0.6-5.4,1c-1.9,0-5.1-0.2-7.1-0.4
						c-7.3,0.9-14.8,0.3-22.4,0.9l-0.5-0.5c-7.4,1-16.4,0.1-22.7,0.6l0.6-0.8c-0.5-0.1-1-0.1-1.5-0.1c-0.7,0-1.5,0.1-2.1,0.1
						c-1.3,0.2-2.3,0.4-2,0.7c-0.9-0.1-2-0.1-3.2,0c-0.1-2.6-0.2-5.6,0.2-7.1c0.2-2.1-0.4-2.5-0.5-4.2c0.3-4,0.2-5.5,0.1-9.4
						l-0.1,0.9c0.2,0.4,0.5,0.5,0.6-0.5c-0.2-1.4,0.2-5.2-0.8-3.8c0.6-4.1-0.5-9.5,0.3-13.5c-0.3,0.3-0.3-0.7-0.5-1.1
						c0-3.6,0.5-7.3,0.1-10.2c0.1-0.6,0.5,0.9,0.5-0.5c-0.1-0.9-0.3,0-0.5-1.1c-0.5-5.8,0.5-11.7,0.4-17c-0.3-4.7-0.3-9.5-0.3-14.2
						c0-4.6,0.1-9.6,0.5-14.2l0.2,0.1c-0.4-3.2,1.8-7.1,1.3-9.7c0.3-0.7,0.7-2.7,1-2.1c0.1-1.3,0.7-2.9,1.3-4.7
						c0.7-1.7,1.4-3.6,1.8-5.4c-0.1,0.3-0.2,0.5-0.2,0.9c0.9-1.6,1.4-3.2,2.1-4.8c0.3-0.8,0.7-1.6,1.1-2.4c0.4-0.8,0.9-1.6,1.4-2.4
						c-0.1,0.4-0.4,1-0.2,1.2c0.5-0.6,0.7-1.4,1-2.2c0.3-0.7,0.6-1.4,1.2-1.5c0.4-0.7-0.1-0.8-0.3-0.3c1.1-1.8,2.3-3.5,3.4-5.3
						c1.2-1.7,2.4-3.6,3.7-5.3c2.6-3.5,5.4-6.9,8.6-9.9c5-3.7,1.3,0.9,4.5-2.8c0.4-0.1,0-0.5,0.2-0.3c1.3-1.4,2.9-1,3.7-2.2
						c-0.8-0.2,0.5-0.8,0.3-1.1c1.7-1,2.7-1.4,3.7-1.9c0.9-0.4,1.7-1,2.9-1.9l0,0.4c1.3-1.2,2.9-2.3,4.5-3.2
						c0.8-0.5,1.5-0.9,2.3-1.4c0.7-0.5,1.4-0.9,2-1.5c4.4-2,9-3.7,13.6-5c4.6-1.3,9.4-2.1,14.1-2.6c4.7-0.5,9.5-0.6,14.3-0.3
						c4.8,0.3,9.5,1,14.2,2.1c4.6,1.2,9.1,2.7,13.4,4.6c4.3,1.8,8.5,4.1,12.5,6.6c8,5,15.1,11.5,21,19.1c1.1,2,1.7,3.1,2.3,4.1
						c0.7,1.1,1.5,2.1,3,4.1c-0.2-0.1-0.4-0.3-0.3,0c0.3-0.1,0.8,0.6,1.3,1.4c0.5,0.8,0.9,1.6,1.3,1.6c3.4,6.2,6.2,12.2,8.3,19.2
						c-0.4-1.1-1.1-1.5-0.6-0.2l0.8,1.3l-0.1,0.3c0.4,0.9,0.9,1.8,0.9,0.8c1.3,4.4,2.1,9,2.5,13.5l0.2,3.4c0.1,1.1,0,2.3,0.1,3.4
						l0,1.7l0,1.6l-0.1,3.2c-0.2,8.7-0.5,17.3-0.4,25.8c-0.3,4.1,0,9.9,0.1,14.3c-0.9,13.1-1.6,25-1,38.3
						C342.1,474.5,340.4,472.7,340.1,467.2z"/>
					<path class="st1" d="M335.3,475.6c-0.5-0.3-2-0.5-0.8-0.9C334.6,475,335.4,475.3,335.3,475.6z"/>
					<path class="st1" d="M294.5,472.2c-0.1,0.1-0.6-0.1-0.7-0.2c0.5,0,1-0.3,1.4-0.1C294.6,472,294.7,472.1,294.5,472.2z"/>
					<path class="st1" d="M284,472c0.2-0.3,2.4-0.5,3.7-0.6L284,472z"/>
					<path class="st1" d="M274.3,470.8c-0.8-0.2-0.6-0.4,0.5-0.4C274.9,470.6,274.6,470.7,274.3,470.8z"/>
					<path class="st1" d="M273.6,471.5c-0.8,0-1.2-0.2-1.6-0.3C272.1,471.4,273.9,471,273.6,471.5z"/>
					<path class="st1" d="M252.5,470.7c-0.5,0-1.6,0.3-2.1-0.1C251,470.8,252.9,470.2,252.5,470.7z"/>
					<path class="st1" d="M242.7,471.1c-0.3,0-0.4-0.1-0.8,0c-0.6-0.1,0-0.3,0.5-0.4L242.7,471.1z"/>
					<polygon class="st1" points="178.5,367.1 178.4,368.1 178.1,367.9 					"/>
					<path class="st1" d="M229.7,314.4c0.9-0.5,0.8,0,0.9,0C229.7,314.8,230.8,314,229.7,314.4z"/>
					<polygon class="st1" points="270.4,309.9 270.1,309.8 270.3,309.2 					"/>
				</g>
			</g>
		</g>
		<g>
			<g>
				<g>
					<path class="st1" d="M153.6,475.6c0.9-0.1-0.5-0.5,0.6-0.2C154,475.6,153.9,475.7,153.6,475.6z"/>
					<path class="st1" d="M154.9,471.4c-1.5-3,0-6.9-1-10.1c-0.1-0.4,0.8,0.1,0.6-0.8c-1.2-3.1-0.5-8.1,0.4-11.9l0.2,0.2
						c0.2-0.7-0.6-1.6-0.5-2.4c0.2,0,0.2,0.2,0.4,0.1c-0.5-0.2-0.2-1.4-0.6-1.7c0.2-0.3,0.6-0.3,0.8-0.7l-0.5-0.4
						c-1.3-1.2,0.1-3-0.6-4.7c0.1,0.1,0.2,0.2,0.3,0.1c-0.8-2.7-0.6-6.1-0.9-9.1c0.2,0.1,0.5,0.2,0.8,0.1c-0.6-0.1-0.7-1.1-0.8-1.9
						c0.6-0.4-0.5-1.4-0.2-2.3l0.1,0.1c-0.6-0.7,0.4-1-0.4-1.6l0.5-0.4c-0.8-0.3,0.4-1,0-1.6l-0.2,0c-0.2-0.5,0.2-0.8,0.1-1.3l0.1,0
						c-0.2-1.2,0.2-1.9-0.4-1.8c0.5-0.4,0.2,1.1,1,0.5c-0.7-3.9-0.5-7.9-0.5-11.8c0.3-0.4,0.3-0.7,0.6-0.8c-0.1-0.4-0.1-1.5-0.4-1.8
						c0,0.1,0.3-0.3,0.4-0.5c0.2-0.8-0.7-0.7-0.4-1.4c0.2,0.2,0.4,0.3,0.6,0.1c-0.5-0.5-0.4-1.4-0.6-2c0.1,0,0.2,0.2,0.4,0
						c-0.2-0.2-0.3-0.5-0.2-0.8c-0.4,0-0.7-0.2-1.2,0l0.6-0.4c-1-0.4-0.9,0.8-1.7,0.5c0.3-0.1,0.3-0.3,0.4-0.4
						c-0.7,0.3-1.3,0.4-1.8,0.5c-0.6,0.1-1.3,0.1-1.7,0.2c0.1-0.1,0-0.2,0-0.2c-1.1,0.1-2.2-0.1-3.4,0.2c-0.4-0.2,0.1-0.9-1-0.8
						c0,0.7-1.9,0.3-1.3,1.1c-1-0.1-2.5-0.4-3.1-0.1c0.4-0.3-0.5-0.9,0.3-1l-0.6-0.4c0.1-0.3,0.6,0.1,0.4-0.3
						c-0.4,0-1.6,0.3-1.9,0.2c-0.7,0.5-1.4,1.3-2.6,1.4c0.6-0.3-0.3-0.8,0.1-0.9l-1.7,1.4c-0.4,0-0.1-0.6-0.7-0.4
						c0,0.2-0.2,0.3-0.4,0.5c-0.2-0.1-1.7,0.2-1.8-0.5c-0.2-0.3,0.7-0.2,0.2-0.4c-0.7,0-0.8,0.3-1.5,0.3l0-0.1
						c-0.5-0.1-1.4,0.3-0.9,0.7c0.3,0-0.1-0.4,0.4-0.2c-0.3,0.4-1.2,0.5-1.9,0.6c0.3-0.1,0.2-0.3,0.3-0.5c-1,0.6-2.1,0.8-3.2,1
						c0,0.3,0.4-0.6,0.6-0.4c-1.4-0.5-2.9,0.7-4.1,0c0.2-0.1,0.1,0.5,0.1,0.4c-0.7,0-0.7-0.5-1.1-0.4c0-0.3-0.6,0.1-1,0.2
						c-0.2,0.2-0.1-0.1,0.3-0.2c-0.6,0.3-3.2,0.7-4.7,0.3c0,0.2-0.9,0.7-1.3,0.7l0.1-0.5c-0.3-0.3-1.1,0-1.2-0.4
						c-0.7,0.6,2.8-0.5,1.8,0c-0.3-0.4-1.4,0.7-1.2,0.1c-0.7,0-1.3,0.5-2,0.1c0.2,0.1,0.6-0.6,0-0.6c-1,0.1-0.3,0.2-1.1,0.4
						l-0.5,0.2c0,0.4-0.9-0.1-0.5,0.4c-0.1-0.4-1.4,0.2-1.3-0.5l0.1-0.6c-0.4,0-0.7,0.6-1,0.9c-0.1-0.1-0.2-0.2-0.1-0.3
						c-0.1,0.9-1-0.1-1.5,0.6c-0.9-0.3-2.4,0-2.4-0.6c-0.4,0.3-0.5,0.6-0.9,0.4c0-0.1,0.1-0.1,0-0.3c-0.4-0.3-0.4,0-0.5,0.1
						c0-0.1-0.9-0.5-1.7-0.8c0,0.1,0,0.1,0,0.2c0.3,0.4,0.7,0.7,1,0.9c-0.5-0.3-0.3,0.2-0.1,0.5c0.2,0.4,0.4,0.6,0,0.7
						c-0.1-0.1-0.6-0.7-0.7-0.5c-0.4,0-0.2,0.3,0,0.6c0.3,0.3,0.6,0.5,0.4,0.8c0.2-0.1,0.5-0.1,0.7-0.2c-0.1,0-0.1,0.1-0.1,0.2
						c0,0,0,0.1,0.1,0.1c0,0.1,0.1,0.1,0.1,0.2c0.1,0.3,0.2,0.5-0.2,0.5c0.3,0.3,0,1.2,0.6,1c-0.3,1.7,1,3.9-0.1,5.1
						c0.2,0.2,0.1,0.8,0.5,0.6c0.3-0.4-0.4-0.5-0.1-0.7c0.1,0.2,0.3,0.2,0.4,0.2c-0.1,0.5-0.1,0.9-0.7,0.6c-0.2,1.2,1.4,0.9,1.3,2.4
						c-0.3,0-0.4,0.1-0.3,0.5l0.6,0.7c0,0.9-0.6,0.6-1.1,0.7c0.2,0.5,0.2,1.1,0.6,1.2l-0.5,0.7c0.4-0.5,0.4,0.4,0.5,0.6l-0.2-0.2
						c-0.2,0.1,0,0.7,0.1,0.9c0.3-0.1,0.3-0.7,0.4-1c0.3,0.2,0.3,0.6,0.6,0.9c-0.5,0-0.2,0.9-0.2,1.3c0,0.5,0.5,0.4,0.5,0.6
						c-0.2,0.1,0.1,0.7-0.3,0.4c-0.1-0.1,0.2-0.4-0.1-0.6c-0.1,0.3-0.6,0.4-0.2,0.9c0.3,0.4,0.9-0.3,0.8,0.6
						c-0.2-0.2-0.4-0.2-0.6-0.4l-0.1,0.9l0.4,0c-0.1,0.1-0.1,0.1-0.2,0.1c0.5,0.2,0.4,1.2,0.9,1.3c0.1,0.4-0.2,0.9-0.1,1.3l-0.1-0.1
						c-0.2,0.5,0.1,1.1,0.5,1.5l-0.1,0c0,0.3,0.2,0.9,0.5,1.2c-0.2,0.7-1.6,0.5-0.9,1.1c0.1,0.7,1,0.9,1.2,0.6
						c-0.1,1.3,0.9,2.5,0.4,3.8c0.2,0.1,0.3,0,0.5,0.4c0.1,1.8,1.2,3.7,0.5,5.2c-0.3-0.5-0.4,0-0.7,0.1c0.5,0.4-0.3,0.6,0.4,0.6
						c0.4-0.1,0.6-0.1,0.7-0.6c0.4,1,0.7,2.6,0.4,3.3c0.1-0.3,0.3-0.1,0.5,0.1c-0.6,0-0.6,0.8-0.3,1.4l0.4,0l-0.3,0.5
						c0.2,0.2,0.9,0.1,0.6,0.8c-0.1,0.1-0.3,0.1-0.4,0.2c0.4,0.6,1.1,1.3,0.9,2.1l-0.5,0.6c0.1,0.3,0.5,0.7,0.6,0.2
						c-0.1,1.2-0.1,1.9-0.5,2.4c1.5,1.8,2,4.6,2.3,6.9l-0.3,0c-0.2,0.7,0.6,0.2,0.4,0.7c-0.3-0.2-0.5,0.6-0.9,0.1
						c-0.2,0.9,0.7,1,0.9,1.6c0.4,0-0.3-0.4,0.2-0.4c0.2,0.1-0.1,1.3,0.5,1.3c-0.2,0.3-0.6,0.2-0.9,0.1l0.4,0.5
						c-0.6,0.8-1.4-1.3-2.2-0.5l0.2,0.5c-0.5,0.6-0.9-1.2-0.9,0.1c0.4,0.5,1.3,0.8,1.5,0.3c0.3,1.1,1.5,0.3,1.6,1.5
						c-0.3,0.4-0.2-0.9-0.7-0.6c-0.4,0.6,0.4,1.1,0.4,1.6c0.1-0.6,0.8-0.2,0.9,0.1c-0.2,0.7-0.6-0.3-0.5,0.6
						c0.4,0.1,0.7,0.8,0.9,0.1c0.8,0.2-0.1,0.9,0.6,1.3c-0.5,0.4-1.4-0.7-1.5,0.3c0.5-0.2,0.9,1.1,1.6,0.4c-0.1,0.4-0.5,0.5-0.8,0.3
						c-0.2,0.6,1.1,1.1,0.2,1.5l0.6,0.1c-0.1,0.1-0.1,0.2-0.2,0.3c-0.1,0.1-0.2,0.1-0.3,0.2c0,0.1,0.2,0.2,0.3,0.2
						c0.1,0.1,0.1,0.1-0.3,0.4c0.1,0,0.1,0.4,0.6-0.2c0.3-0.4-0.4,0,0.3-0.4c-0.5,0.4,0.1,0.2,0.3,0l-0.3,0.3c0.1,0,0.1,0,0.2-0.1
						c0,0,0.1-0.1,0.2-0.2c-0.2,0.2-0.3,0.4-0.4,0.5c0.1-0.2,0.3-0.3,0.4-0.5c0.2-0.2-0.5,0.8-0.2,0.7c-0.1,0.1-0.2,0.2-0.4,0.4
						c0.1-0.1,0,0.4,0.2,0.2c0.3-0.4,0.5-0.9,0.6-1.3c0.1-0.2-0.1,0.5,0,0c0,0.2-0.1,0.3-0.2,0.5c-0.1,0.1-0.1,0.7,0.3,0.7
						c0.4-0.1,1.1-0.8,0.4-1c0.3,0,0.8,0.3,0.6,0.6c0.8-0.1-0.1-0.5,0.6-0.7c0.3,0.3,1.1,0.7,1.7,1.1l-0.7,0.7l0.5,0
						c-0.6,0.6,0.3,0.4,0,1c0.3,0.1,0.7-0.1,1-0.3c-0.9-1,1.1-1.3,0.8-2.2c1.3-0.2,0.8,2.1,2.1,0.8c-0.2-0.2,0.4-0.9-0.4-0.6
						c0.8,0.1,0.5-0.9,1.5-0.5c-0.7,0.4,0.7,0.9-0.3,1.4c0.1-0.3-0.6-0.2-0.7-0.1c0.3,0.3-0.1,0.9,0.7,0.9c0.5-0.1,1.2-0.1,1.1-0.6
						c0-0.5-0.8,0.1-0.4-0.5c1-0.2,1.2,0.6,1.6-0.3c-0.6,0.1-0.8-0.5-0.8-0.8l0.7-0.2l-0.1,0.3c1.2,0.2,0.3-0.6,1.5-0.5l0.5,0.7
						c-0.3,0.6-1.7-0.3-1.4,0.7c0.7,0,1-0.4,1.7-0.2c-0.2,0.1-0.4,0.1-0.5,0.2c0.3,0,0.5,1.3,1.6,0.5c0.5-0.3,0.1-0.3,0.2-0.7
						c1.2-0.1,1.5-0.5,2.3-0.5c-0.2,0.7,1.3,0.1,0.5,0.8c-0.4-0.4-2.1-0.4-2.5,0.3c0.4,0.8-0.9-0.1-1.2,0.7c0.9,0,0.9,0.8,1.1,1.3
						c0.3,0,0.5-0.2,0.7-0.3c0.1-0.5-0.2-0.5-0.3-1c1.1,0.1,2.1-0.1,2.7-0.6c0.4,0.2,0.2,0.7-0.2,0.8c1.3-0.1,2.6-0.1,3.8,0.1
						c-0.8-0.8,1.3-0.2,0.8-0.9c-0.6-0.2-1.2-0.7-0.8-1.1c0.4,0.1,0,0.3,0.2,0.5c0.5-0.4,0.8,0.7,1.3,0c-1.2,0.3-0.2,1-0.4,1.6
						c0.8-0.4,0,0.4,0.8,0.4c0.8-0.3,1.8-0.6,2.8-0.8c1.2,0.6,2.9,0,4,0c0.5,0.3,0.2,1,0.8,1.1c0.7,0-0.5-0.8,0.5-0.4l-0.1,0.1
						c0.3-0.2,1.9,0.5,2.2-0.5l-0.3,0.8c0.2,0.1,0.4-0.1,0.5-0.2c0,0.2,0.2,0.5-0.1,0.6c0.6,0.5,1.3-0.1,2-0.1l-0.4-0.5
						c1.2-0.4,2,0.1,3.1-0.1l0,0.4l0.7-0.3c-0.2,0.4,0.5,0.7,0.8,0.3l-1.7,1.1c-0.5-0.3,0.5-0.5,0.2-1c-0.3-0.4-1.3-0.3-1.5,0.2
						c0.4,0,0.4,0,0.7-0.2c0.1,0.6-0.5,0.6-0.8,1c0.2,0,0.5,0.2,0.6,0c-0.4,0.3-0.8,0.3-1.5,0.4c0.5-0.2-0.3-0.4-0.1-0.6
						c-0.1,0.5-0.7,0.7-1.6,0.6c-0.6-0.6-1.6,0.4-2.6,0.2c0.4-0.6,0.9-1,1.5-1.2c-0.6-0.3-0.7,0-1.3-0.3c-0.3,0.4-0.5,1-1.3,1.3
						l0-0.4c-0.7,0.2-0.7,0.8-1.7,0.7c-1.6-0.2-3.2-0.2-4.4-0.3l0-0.4c-0.7,0.9-2.3,0.3-3.2,0.7c-1.5-0.4-3.4,0.4-4.2-0.3
						c-2.7,0.3-5.1,0.6-7.9,0.5l0.5-0.6c-0.5,0.4-0.3-0.3-0.8-0.3c0.6,0.5-0.7,0.6-1,1c-1.3-0.5-2.9,0-4,0.5l0-0.4
						c-0.6,0.4-1.2,0.4-1.8,0.3c-0.5-0.1-0.9-0.1-1.4-0.2c-0.5-0.1-1-0.1-1.4-0.2c-0.2-0.2-0.3-0.5-0.9-0.5
						c-0.6,0.3-1.1,0.4-1.7,0.6c-0.2-0.4-0.4-0.9-0.7-1.6c-0.1-0.6-0.2-1.5-0.3-2.3c0-0.4-0.1-0.8-0.1-1.2c0-0.3,0-0.5,0.1-0.7
						c-1.4-2.9-1.4-6.1-2.4-9.1l0.4-0.3c-1.5-2.9-1.2-6.8-2.2-9.3l0.8,0.1c0.1-0.9-0.5-1.8-1.1-1.5c0.1-0.9-0.7-2-0.2-2.6
						c0-0.9-0.5-1-0.8-1.6c0-1.7-0.2-2.3-0.6-3.9l0,0.4c0.2,0.1,0.6,0.1,0.5-0.3c-0.3-0.6-0.1-2.2-1-1.5c0.3-1.8-1.1-3.9-0.6-5.6
						c-0.2,0.2-0.4-0.2-0.6-0.4c-0.3-1.5,0-3.1-0.6-4.2c0.1-0.3,0.5,0.3,0.4-0.3c-0.2-0.3-0.3,0-0.6-0.4c-0.9-2.3-0.3-4.9-0.8-7.1
						c-1.2-3.8-1.6-7.9-2.3-11.6l0.2,0c-0.9-1.1,0.3-3-1-3.9c0.1-0.3-0.1-1.1,0.3-1c-0.1-0.1-0.1-0.2-0.2-0.4
						c-0.1-0.2-0.1-0.5-0.2-0.8c-0.1-0.6-0.1-1.2-0.2-1.8c-0.1-1.3-0.2-2.5-0.8-4c0,0.2,0.1,0.4,0.2,0.7c0-0.9-0.1-1.8-0.3-2.7
						c1.4,0,2.8-0.2,4.5,0.1c-0.2,0.1-0.6,0.1-0.6,0.3c0.6,0.2,1,0,1.5-0.2c0.5-0.1,0.9-0.2,1.3,0.3c0.5,0,0.3-0.5-0.1-0.4
						c0.7,0,1.5,0.1,2.1,0.1c0.4,0,0.9,0,1.3,0c0.9,0,1.8-0.1,2.6-0.1c1.8-0.1,3.6-0.3,5.3-0.4c2.5,0.6,0.2,1.6,2.1,0.9
						c0.2,0.2,0.1-0.4,0.1-0.2c0.8-0.3,1.2,1.1,1.7,0.6c-0.2-0.6,0.4-0.3,0.4-0.7c1.5,0.4,1.9,0.9,3.1,0.5l-0.1,0.3
						c1.4-0.9,3.1-0.4,4.3-1.4c7.9-0.2,15.4-0.7,23.1-0.8l1.9,0l2.5,0c2.5,0,4.9,0,7.4,0c0,3.9,0,7.8,0,11.8c0,2.5-0.1,5.1-0.3,7.7
						c-0.8,1.8-0.8,1.9-0.5,3.9c-0.1-0.1-0.2-0.2-0.3-0.1c0.7,0.1,0.1,1.4,0.7,1.6c-0.1,2.9,0.1,5.5,0.1,8.4
						c-0.1-0.5-0.6-0.7-0.6-0.1l0.4,0.6l-0.2,0.1c0.1,0.4,0.4,0.8,0.6,0.4c0.6,7.4-0.7,14.6-0.6,21.9c-0.3,1.7,0,4.2,0.1,6
						c-0.9,5.5-1.6,10.5-1,16.1C157,474.5,155.3,473.7,154.9,471.4z"/>
					<path class="st1" d="M152.5,475.6c-0.2-0.3-0.8-0.5-0.3-0.9C152.2,475,152.5,475.3,152.5,475.6z"/>
					<path class="st1" d="M135.3,472.2c0,0.1-0.2-0.1-0.3-0.2c0.2,0,0.4-0.3,0.6-0.1C135.4,472,135.4,472.1,135.3,472.2z"/>
					<path class="st1" d="M130.9,472c0.1-0.3,1-0.5,1.6-0.6L130.9,472z"/>
					<path class="st1" d="M126.8,470.8c-0.4-0.2-0.3-0.4,0.2-0.4C127.1,470.6,126.9,470.7,126.8,470.8z"/>
					<path class="st1" d="M126.5,471.5c-0.3,0-0.5-0.2-0.7-0.3C125.9,471.4,126.7,471,126.5,471.5z"/>
					<path class="st1" d="M117.7,470.7c-0.2,0-0.7,0.3-0.9-0.1C117,470.8,117.8,470.2,117.7,470.7z"/>
					<path class="st1" d="M113.5,471.1C113.5,471.1,113.5,471,113.5,471.1c-0.1-0.1-0.1-0.3,0-0.4
						C113.5,470.9,113.5,471,113.5,471.1z"/>
					<polygon class="st1" points="100.3,404.4 100.5,404.6 100.2,404.6 					"/>
					<path class="st1" d="M126.5,402.6c0.4-0.2,0.3,0.3,0.4,0.3C126.5,402.9,127.1,402.6,126.5,402.6z"/>
					<polygon class="st1" points="144.3,401.1 144.2,401.1 144.2,400.5 					"/>
				</g>
			</g>
		</g>
		<g>
			<g>
				<g>
					<path class="st1" d="M486.5,222.2c4.1,3.9-1.8-2.5,2.8,2.5C488.6,224.3,487.7,223.7,486.5,222.2z"/>
					<path class="st1" d="M486.8,238.9c-0.9,0.4-1.9,0.7-3,0.8l0.1,0c0,0-0.1,0-0.1,0l0.1,0c-7.2,0.4-15.1,0.5-23.4,0.5
						c-2.1,12-4.4,24.3-5.7,35.5c-0.3,2.3-0.7-0.7-1.4,4.5c-2.1,19.4-7.9,49.6-12.7,72.9l0-1.5c-0.9,4.4-1.1,10-2,14.7
						c-0.2,0,0-1.5-0.4-0.5c0.3,1.3-1.2,8.6-1.2,10.6c-0.5,1.8-0.8,1.6-1.4,4l0.1,2.8c0,7.7-3.2,18.2-4.2,28.6c0-0.5,0-1.5-0.2-0.8
						c-2,16.6-5.6,37.2-8.4,55.7c-0.1-0.8-0.3-1.5-0.7-0.5c0.4,1-0.4,6.7-1.1,11.7c-0.5,1.1-0.7,3.2-1,5.8c-0.1,0.7-0.1,1.3-0.2,2
						c-0.1,0.7-0.3,1.5-0.6,2.2c-0.3,0.7-0.7,1.4-1.2,2c-0.3,0.3-0.6,0.6-0.9,0.9c-0.3,0.3-0.6,0.6-0.9,0.8c0.1-0.1,0.2-0.3,0.3-0.4
						c-1.6,1.7-3.5,2.3-5.1,2.4c-0.4,0.1-0.8,0-1.2,0c-0.4,0-0.7,0-1.1,0c-0.8,0-1.6,0.1-2.4,0.3l-2.8-0.5c-1.9,0.8-6.3-0.4-9.9,0
						l0.1,0.2c-3.4,0.2-5.1-0.2-8.3-0.1l-0.3-0.1c-7.3,0.2-11.6-0.2-11.4,0.4c-2.6-0.5,7.1-0.2,3.1-1c-24.2,0.7-49.1,0.5-73.4,0.5
						c-2.8-0.3-4.5-0.3-5.1-0.6c-2.4,0.1-9.2,0.1-11.4,0.4c0.8,0-1.6-0.3-2.9-0.4c-4.4-0.2-4.8,0.7-9.7,0.4c1.9-0.2,2.6-0.4,1.9-0.6
						c-4.1,0.5-9.7,0.4-14.6,0.6c0.8-0.1,1.9-0.2,1.8-0.4c-5.4,0.6-9.8-0.1-14.5,0.2l1.8-0.4c-7.6-0.4-2.2,0.8-8.8,0.5
						c1.6-0.1,1-0.3,1.3-0.4c-6.1,0.7-16,0.5-22.1,0.7c0.4-0.1,0.3-0.2,0.3-0.2c-6.6,0.1-13.6-0.1-20.8,0.2
						c-2.7-0.2,0.9-0.9-6.1-0.8c0.3,0.7-11.9,0.3-7.8,1.1c-6-0.1-15.5-0.4-19.5-0.1c2.7-0.3-2.9-0.9,2.1-1l-3.8-0.4
						c0.6-0.3,3.9,0.1,2.7-0.3c-2.5,0-9.8,0.3-12,0.2c-4.6,0.5-8.9,1.3-16.4,1.4c3.5-0.3-2-0.8,0.4-0.9l-10.4,1.4
						c-2.5,0-0.5-0.6-4.1-0.4c0.2,0.2-1.4,0.3-2.5,0.5c-0.9-0.1-10.4,0.2-11.4-0.5c-1.1-0.3,4.1-0.2,1.3-0.4c-4.6,0-4.8,0.3-9.4,0.3
						l-0.1-0.1c-0.8,0-1.7,0-2.7,0c-1-0.1-2-0.2-2.7-0.5c-0.8-0.2-1.3-0.4-1.5-0.4c-0.2,0,0,0.3,0.8,0.7c1.1,0.5,0.9,0.2,0.9,0.1
						c0-0.1,0-0.1,1.7,0.4c-1.2,0-3.4-0.4-5.4-2.1c-0.5-0.4-1-0.9-1.4-1.4c-0.4-0.5-0.8-1.1-1.2-1.7c-0.7-1.2-1.1-2.7-1.2-3.8
						c0.1,0.2,0.1,0.4,0.1,0.5c0,0.1,0.1,0.3,0.1,0.4c0.1,0.2,0.2,0.4,0.2,0.5c0.1,0.2,0.3,0.3,0.5,0.6c-0.3-0.8-0.6-1.7-0.7-2.4
						c-0.2-0.8-0.4-1.5-0.6-2.3c-0.4-1.6-0.7-3.1-1.1-4.7c-0.7-3.2-1.3-6.5-2-9.9c-0.4,0,1.1,2.4,1,3.5c-1-8.8-3.7-17.9-4.2-25.3
						c0.3,1.2-0.4,0.7-0.3,0.6c-0.7-4.2-0.1-4.1-0.8-6.8c0.2-0.3-0.7-3.4-1.2-6.2c-0.5-1.4,0-0.8,0.5,1.7c-0.9-3.9-4-19.5-5.1-28.7
						c-0.2,0.2-1.6-5.5-2-7.6l0.6,0.7c-0.1-1.9-1.2-7-0.9-7.4c-1.3-4.4,3.4,17.1,1.9,11.1c0.1-1.6-2.1-8.3-1.3-7.1
						c-0.7-4.2-1.9-8.2-2.2-12.2c0.1,1.2,1.2,3.3,0.6-0.1c-1.1-5.9-0.5-1.7-1.5-6.5l-0.7-3c-0.5-0.1-0.8-5.3-1-3
						c0.2-0.8-1.7-8.6-0.8-8.1l0.7,0.7c-0.5-2.6-1.3-4.1-1.9-6.1c0-0.3,0-1,0.1-0.9c-0.9-0.3-1-6.2-2.2-9.1
						c-0.6-5.5-2.3-13.7-2.2-16.4c-1-4.1-1.9-7.8-2.5-12.6c0.2,0.9,0.5,2.2,0.7,2.5c-0.2-3-0.6-3.7-1.2-6.4c0.2,0.6-0.5-6-0.7-9.4
						c-1-4.1-1.2-2.6-1.6-3c0.2-3.9-2.5-11.6-2.5-16.4c0.4,1.4,1.4,5.9,1.1,2.5c0.2-3.9-1.9-7.5-2.5-13.7l-0.5,1.6
						c0-2.8-1.9-8.9-1.1-8.4c-0.6-2-1-7.2-1.6-6.4c-0.3-3.2-0.9-6.9-1.5-10.5c-0.3-1.8-0.6-3.7-0.9-5.5c-0.1-0.7-0.2-1.4-0.3-2.1
						c-0.1-0.4-0.1-0.8-0.2-1.2c-1,0-1.3-0.1-3.3-0.2c-1.6-0.1-3-0.3-4.1-0.5c-1.5,0.1-5.1,0-4.3,0.4c2.4,0.4,3.4-0.3,4.3,0
						c-1.3,0-1.6,0.2-1.7,0.3c-3.2-0.2-5.6-0.2-2.7-0.8c-3.5-0.2-5.3,0.1-7.4,0.4c-0.5,0.1-1,0.2-1.6,0.2c-0.5,0.1-1.4,0.1-2.2,0.1
						c-1.7-0.2-3.9-0.8-6-2.7c0.3,0,0.3-0.1-0.1-0.5c-0.4-0.4-1.1-1.1-1.9-2.5c-1.2-1.6-1.9-3.7-2.1-5.8c0-1.8,0.4-3,0.7-3.7
						c0.3-0.7,0.5-0.9,0.6-0.9c0.2,0,0.2,0.7,0.5,0.7c0.3-0.8,0.7-1.7,1.3-2.5c0.5-0.8,1.2-1.5,1.7-2c1-1.1,1.9-2.1,2.2-2.7l3.1-2.2
						c-2.2,1.6,1.6-2,2.5-3.1l-0.9,1.1c0.6-0.3,3-2.9,4.2-4.2c-0.5,0.1-3.2,2.6-4.6,3.9c1-1.3,2.7-3,4-4.6c-0.1,0.8,3.8-3.3,5.6-5
						c2.1-1.9,1.9-2.5,2.5-3.1c0.2,0.1,3.3-3.2,2-1.4c-0.6,0.7-1.7,1.4-2.7,2.7c1.4-1.2,1.6-0.7,4.1-3.7c1.9-2.2-1.2-0.2,2.9-3.8
						c-0.9,1.1-1,1.4-1.7,2.3l3.8-3.5l-0.2-0.5c0.6-0.4,0.3,0,0.5-0.2c0.8-1.4,5.5-5.7,5.9-6.8c1.8-1.9,4.1-3.6,5.9-5.4l-0.3,0.4
						c2.3-2,5.1-4.9,6.6-6.9l0,0.2c1.2-1.1,3.9-4,5.2-5.6c3.2-2.7,2.2,0.2,5.1-3.5c3-3,4.1-5.3,2.7-4.3c5.6-5.2,11.2-11.8,16.7-16.3
						c0.6-0.9,0.1-0.5,1.6-2.2c8-7.8,16.3-17.1,23.3-22.8c-2.2,2.4,0.2,0.5,0.4,0.6c1.6-2.2,2.6-2,2.8-3.1c-0.5-0.1-0.4-0.4-2.8,1.7
						c4.6-4.9,11.8-12,14.6-14.4c-1.4,1.2-0.5,0.1,0.4-1c0.1,0.8,3.7-2.6,6.1-5.4l0.1-0.7l2-1.4c0.9-1.1,0.5-1.7,3.4-4
						c0.2,0,0.5-0.1,1.1-0.5c2.5-3,6-7.2,9.2-9.9l2.8-2c1.2-1.3,3.1-3.7,0.8-1.6c5.3-4.8,8.6-8,10.5-9.3
						c7.8-9.5,20.4-22.2,30.6-32.2l-0.1,0.5c2.9-2.5,1-1.8,3.2-3.6c-0.7,1.1,2.6-1.7,0.6,0.8c1.1-0.9,2-1.7,2.7-2.4
						c0.7-0.7,1.4-1.3,1.9-1.8c0.6-0.6,1.1-1.1,1.6-1.6c0.6-0.5,1.2-1,1.9-1.6c0.2-0.6-2.3,1.9-2,1.1c0.2-0.2,1.9-1.4,3.6-2.4
						c1.7-1.1,3.5-2.1,3.7-2.6c1.4-0.5,0.6,0.4,0,1l1.5-1l1.5-0.9c2.1-0.6,0,0.7-1.9,2.1c-1.9,1.4-3.7,3-1.6,2.2l2.7-1.6
						c2.9-0.9-6.8,4.7,0.1,1c2.8-1.8,5.2-3.8,2.3-2.7c3.2-1.6,3.9-2.2,4.6-2.8c0.7-0.6,1.5-1.3,5.3-2.5c1.1-0.2-0.4,0.3-2,0.9
						c-1.6,0.5-3.1,1.3-2.3,1.2c3.6-0.8,6.9-2.6,10.2-3.1c-3.6,0.6-0.7-0.7,1.6-1.3c4-0.4-2.4,1,3.1,0.1c0.9-0.4,6-1.3,1.5-1
						c2-1.1,5.9-0.3,9-1c1.8,0.5-5.8,1.4,0.4,1.5c-0.5-0.3,1.4-0.4,3.1-0.6c1.6-0.1,3-0.2,1.4-0.7c2.5,0.3,2.7,0.8,0.9,0.9
						c0.9,0.1,1.8,0.2,2.8,0.3c1,0.1,2,0.1,2.9,0.1c1.8,0.2,3.4,0.4,3.8,1l1.3-0.3c1,0.4,2.5,0.9,4.2,1.7c1.5,0.4,3.9,1,5.8,1.7
						c0.5,0.2,0.9,0.3,1.4,0.5c0.4,0.2,0.8,0.3,1.1,0.5c0.6,0.3,0.9,0.5,0.7,0.7c0.2,0.1,0.8,0.3,1.5,0.6c0.7,0.3,1.5,0.7,2.2,1
						c1.4,0.6,2.4,1.1,1.3,0.2c-3.7-2.3-4.7-1.8-6.6-3.5c2.6,1.8,5.8,2.5,8.1,3.7l0.2,0.5c0.3,0.2,0.8,0.4,1.3,0.7
						c0.5,0.3,1,0.6,1.5,0.9c1,0.6,2,1.1,2.5,1.3c-1.1-0.5-0.7,0,0.3,0.8l1.6,0.5c5,3.6,0.7,1.5,5.3,5.2c-1.2-0.9-2.4-1.8-3.7-2.6
						c0.4,0.3,1,0.8,1.6,1.5c0.7,0.7,1.6,1.5,2.6,2.5c0.5,0.2,1.3,0.6,2,1c0.7,0.4,1.3,0.7,1.8,0.9c2.4,2.1,0.7,1.4,3.2,3.3
						l-3.3-2.6c-0.5-0.3,1.5,2.5,4.5,5.5c2,1.8,5.5,4.4,2.6,1.2c1.5,1.5,3.5,3.8,2,2.8c3.5,3.3-0.1-0.8,3,2c1,1.4,4.5,5.5,6.5,8.1
						l-3.6-2.6l2.1,2.1c-3.1-2.3,1,1.7-0.9,0.6c1.3,1.5,3.2,3,4.7,4.3c-3.4-4.8,5.6,3.7,5,1.9c5.8,5.5,2,5,8.9,9.9
						c-0.8-1.1,2.5,1.2-1.3-2.2c3.4,3.6,3,1.8,6.9,6.1c-3.3-2.8,2.7,3.9-2.1-0.1c0.5,0.1-2.3-2.6-3.1-3.2c1.2,1.7-0.9,0.3,2.7,3.9
						c2.2,2.1,5.3,5.1,5.2,4.4c0.3-0.5-3.4-3.3-1.6-2.3c4.5,4.2,4.7,5.5,7.1,6.7c-2.8-2.7-3.1-3.8-2.8-4l3.4,3.1l-0.9-0.4
						c5,5.3,1.9,1.1,6.9,6.1l1.9,2.8c-1.6-0.8-7.1-7.4-6.8-5.9c3.2,3.3,4.6,4,7.5,7.2c-0.7-0.6-1.7-1.5-2.4-2.1
						c1.1,1.2,1.4,3.2,6.6,7.3c2.6,2.2,0.9,0.4,1.2,0.2c5.3,5.1,7.1,6.4,10.5,9.7c-1.2-0.2,5.9,6,1.7,2.8c-1.4-2-9-9.5-11.3-10.9
						c1.3,2.5-4-4.2-5.7-4.7c4.2,4.2,3.4,4.5,3.7,5.6c1.1,1.2,2.4,2.1,3.2,2.8c0.8,0.1-0.7-1.4-0.4-1.8c4.6,4.7,9.2,9,12.1,11.3
						c1.4,1.7,0.5,1.6-1.3-0.2c5.6,5.4,11.5,11.4,16.7,16.7c-2.8-4,6,5.7,4.1,2.9c-2.7-2.9-4.7-5.8-2.9-4.5c1.7,1.8-0.3,0.2,0.3,1
						c2.6,1.9,3,4,5.7,5.7c-5.2-4.9-1.7-0.3-3-0.8c3.9,3.4-0.5,0.2,3.1,3.8c3.9,3.4,8.5,7.7,12.7,11.6c4.7,5.5,12.8,12.8,17.4,17.4
						c2.1,2.6,0,1.5,2.5,4.1c3,3-1.7-2.8,2.5,1.9l-0.5-0.3c1.5,1.2,7.9,8.5,9.9,9.1l-1.9-0.8c0.8,0.9,1.7,1.5,2.4,2.2
						c-0.1,0.2,0.7,1.3-0.8,0.1c2.4,3.1,5.9,5.7,8.9,8.7l-1.6-2.2c5.4,4.9,8.5,8.6,13.6,13.5l-0.5,0.2l3.1,2.8
						c-1-0.4,1.5,2.5,3.3,3.8l-8.4-6.9c-1.9-2.3,2.7,1.9,1.7,0.3c-0.9-1.4-5.5-5.9-6.6-6.4c1.7,1.8,1.9,1.8,3.4,3.1
						c0.1,1-2.5-1.7-4.1-2.7c0.9,0.9,2.1,2.3,2.5,2.4c-2-1.6-3.9-3.4-6.9-6.4c2.2,1.9-0.8-1.4,0.1-0.7c-0.6,0.1-3.6-2.6-7.2-6.4
						c-2.2-3.1-7.3-6.7-11.5-11.1c2.1,1.4,4.7,3.3,7.5,5.8c-2.5-2.9-3-3-5.5-5.9c-1.6-1-3-1.5-6.7-4.9l0.1-0.5
						c-3.4-3.1-3.8-2.6-7.8-6.8c-6.8-7.1-14-14.3-19.3-19.7l0.1-0.5c-3.6-2.4-10.1-9.7-14.4-13.4c-6.5-7.1-15-14.5-18-18.5
						c-12.2-11.8-22.9-22-35.2-34.6l2.5,1.7c-2.5-1.9-1.2-1.7-3.5-3.8c2.2,2.8-3.5-2.6-5.3-3.9c-5.2-5.9-12.7-12.6-17.9-17.2
						l0.1-0.5c-2.7-2.2-5.5-4.9-8.3-7.8c-1.4-1.5-2.8-3-4.3-4.5c-0.7-0.8-1.5-1.6-2.2-2.3c-0.7-0.8-1.5-1.5-2.2-2.2
						c-0.3-0.4-0.7-0.9-1.2-1.5c-0.6-0.6-1.3-1.4-2.3-2.1c-2-1.2-3.5-2.1-5.3-3.1c-1.8-1-3.7-2.1-6.8-3.4c-2.2-1.1-5.1-2.4-8.1-3.5
						c-3-1.2-6.2-2-8.6-2.6c-9.2-1.3-18.6-1.2-27.8,0.9c-9.1,2.1-18,6-25.4,12l-1.4,0.5c-1.8,1.5-3.5,3.2-5.2,4.9
						c-1.7,1.8-3.5,3.6-5.3,5.5c-3.6,3.7-7.4,7.4-11,11.1c-7.4,7.3-14.5,14.3-20.1,20.3l0.5-1.7c-3.8,3.5-8.1,8.4-6.8,7.9
						c-3.8,3.5-8.8,9.4-11.6,11.2c-3.8,3.6-4.3,4.8-7.3,8c-7.7,7.2-10.4,10.1-17.3,17.2l1.8-1.7c0.6-0.9,0.5-1.2-1.3,0.5
						c-2.5,2.8-9.8,9.5-6.5,7.6c-7.9,7.1-17.2,17.8-25.1,24.6c0.8-0.4-1,1.4-1.7,2.4c-6.6,6.6-13.9,13.1-18.9,18.7
						c-1.1,1,1.4-2-1.4,0.7c-1.5,1.7,0.2,0.3-1.6,2.3c-10.3,11-22,21.3-31.6,31.1c-4.2,4.4-8.5,8.8-12.9,13.2l-6.5,6.6l-0.4,0.4
						c-0.1,0.1-0.3,0.3-0.3,0.4c-0.2,0.2-0.3,0.4-0.5,0.6c-0.3,0.4-0.5,0.8-0.7,1.3c-0.4,0.9-0.5,1.9-0.4,2.9c0.2,2,1.5,3.7,3.2,4.6
						c0.4,0.2,0.9,0.4,1.4,0.5c0.2,0.1,0.5,0.1,0.7,0.1c0.3,0,0.4,0,0.9,0c1.5,0,3,0,4.6,0c6.9,0,13.7,0,20.3,0l-0.6,0.2
						c0.5,0,1,0,1.5-0.1c0.3,1.6,0.7,3.3,1,5.1c0.1,0.7,0.2,1.4,0.4,2.1c0.1,0.5,0.2,1,0.3,1.6c0.3,2.1,0.6,4.2,0.9,6.3
						c0.6,4.2,1.2,8.2,2.2,11.1c0.1,1.9,1.1,7,0.5,5.7c1.6,6.1,2.4,17.3,4.6,26.1c-0.1-0.8-0.2-1.3-0.5-2.2c1.1,9.1,3,16.9,4.2,26.4
						c-0.2-0.9-0.6-2.7-0.8-2.9c0.2,3.7,2.3,8.5,1.7,10.7c0.4,2.1,0.7,1.4,0.5,0.1c3.1,20.8,7.5,42.9,11.3,64.5
						c2.1,15.6-1.4,1.2,1.3,13.3c0,1,0.5,0.7,0.3,0.9c1.1,4.7,0.2,7.5,1.2,10.7c0.3-1.4,0.7,2.1,1,2.2c1.2,9.5,1,11.5,2.7,18.9
						l-0.4-0.5c2.3,8.6,3.6,18.8,5.8,26.1c1,6,2.1,12,3.1,18l0.4,2.2l0.2,1.1l0,0.3l0,0.1l0.1,0.4c0.2,0.9,0.7,1.8,1.4,2.4
						c0.6,0.7,1.4,1.2,2.3,1.5c0.5,0.2,0.9,0.2,1.4,0.3l0.3,0l0.2,0l0.3,0l1.1,0c12-0.1,24-0.2,35.9-0.3c23.8-0.2,47.5-0.3,71.4-0.4
						c47.2,0.2,93.4-0.3,141.4,0.3c11.2,0.8,12.1,0.8,24.4,0.5c-0.5,0.1-1.3,0.2-0.4,0.3c0.6-0.7,8.7-0.1,9.9-0.7
						c4.4,0,8.8,0,13.1,0c2.2,0,4.3,0,6.4,0l3.2,0l0.8,0c0.3,0,0.6,0,0.7,0c0.3,0,0.6-0.1,0.9-0.1c0.6-0.1,1.2-0.4,1.7-0.7
						c0.6-0.3,0.9-0.8,1.4-1.2c0.2-0.3,0.4-0.5,0.5-0.8c0.2-0.3,0.3-0.5,0.4-0.9c0.1-0.3,0.1-0.5,0.2-1l0.3-1.6
						c0.7-4.3,1.4-8.7,2.2-13.2c-0.4,2.9-0.1,4.4,0.4,1l0.2-3.6l0.3-0.5c0.3-2.3,0.4-4.9-0.2-2.6c7-45.3,15.8-89.5,23.1-133.7
						c2-10.5,4.3-25.5,6.1-36.9c1.8-9.2,3.5-18.1,5.2-27c0.8-4.4,1.7-8.8,2.5-13.2l1.2-6.6c0.5-3,1-5.9,1.6-8.9
						c4.6,0,9.3,0.1,13.9,0.1c3.9,0,7.8,0,11.8,0l-0.3,0c0.2,0,0.5,0,0.7,0l-0.4,0c0.7,0,1.3-0.1,1.9-0.3c0.6-0.2,1.2-0.5,1.8-0.9
						c1.1-0.8,1.9-1.8,2.4-3.1c0.5-1.2,0.6-2.6,0.2-3.9c-0.3-1.3-1-2.5-2.1-3.3c0,0,0.2,0,0.7,0.3c0.4,0.2,1.1,0.7,1.8,1.7
						c0.7,1,1.3,2.5,1.1,4.7c-0.1,1.1-0.5,2.2-1.3,3.3C489.5,237.2,488.3,238.3,486.8,238.9z"/>
					<path class="st1" d="M481.6,217.4c-0.6-1.1-3.3-4-0.8-2.1C480.9,215.8,482.1,217.5,481.6,217.4z"/>
					<path class="st1" d="M408.6,139.7c-0.2,0-1-1.2-1.2-1.4c0.9,0.9,2,1.6,2.6,2.4C409.1,139.8,409.2,140,408.6,139.7z"/>
					<path class="st1" d="M389.5,120.3c0.5,0.1,4.8,4,7.2,6.4L389.5,120.3z"/>
					<path class="st1" d="M372.4,101.5c-1.4-1.7-0.9-1.4,1.2,0.7C373.7,102.5,372.9,101.9,372.4,101.5z"/>
					<path class="st1" d="M370.7,100.7c-1.5-1.5-2.1-2.3-2.7-3.2C367.8,97.8,371.5,100.9,370.7,100.7z"/>
					<path class="st1" d="M332.3,61.2c-1-0.9-3.2-2.8-3.8-3.9C329.3,58.4,333.3,61.6,332.3,61.2z"/>
					<path class="st1" d="M313.9,43.4c-0.6-0.6-0.8-0.9-1.5-1.5c-1-1.2,0.3-0.2,1.2,0.7L313.9,43.4z"/>
					<polygon class="st1" points="56.3,281 55.7,278.3 56,278.7 					"/>
					<path class="st1" d="M90.2,482.5c0.6,2.7,0,1.9,0.1,2.4C89.8,482.4,90.8,485.7,90.2,482.5z"/>
					<polygon class="st1" points="196,493.7 195.1,493.7 195.4,493.1 					"/>
				</g>
			</g>
		</g>
	</g>
</g>
</svg>
