<svg xmlns="http://www.w3.org/2000/svg" viewBox="0 0 20.94 25.92"><defs><style>.cls-1{fill:#fff;}</style></defs><title>left</title><g id="Layer_2" data-name="Layer 2"><g id="Layer_1-2" data-name="Layer 1"><path class="cls-1" d="M14.1,8.82l-2.94,3.66q.24.42,3.12,3.6,3.06,3.36,4.86,5.55t1.8,2.85q0,.72-.84.93a9.47,9.47,0,0,1-2.22.21l-.84.06q-.66.06-.66.24h-5L1.56,16.38a2.8,2.8,0,0,0-.72-1.2A3.25,3.25,0,0,1,0,13.32a1.27,1.27,0,0,1,.3-.84A3.45,3.45,0,0,1,1,11.85a4.34,4.34,0,0,0,.57-.45L9.9,2.94q.3-.3,1-.9a2.71,2.71,0,0,0,.81-1,.85.85,0,0,1,.51-.72,2,2,0,0,1,1-.3l1.74.06a8.23,8.23,0,0,0,1-.06A10.58,10.58,0,0,1,17.22,0q3.72,0,3.72,1.08a10.85,10.85,0,0,1-2,2.16l-1.26,1.2Q16.5,5.94,14.1,8.82ZM2.34,14.28q.24,0,.6-.39a4.06,4.06,0,0,1,.72-.63.41.41,0,0,0,.3.12.35.35,0,0,0,.3-.18A1.79,1.79,0,0,1,4.44,13a7.77,7.77,0,0,1,2.28-1.5,34.42,34.42,0,0,1,3.42-1.32V9.9a4.92,4.92,0,0,0-.93.24l-.69.24a7.64,7.64,0,0,1-2,.48v-.42a14.61,14.61,0,0,0-3.15,1.5q-1.53,1-1.53,1.74Q2,14.28,2.34,14.28Zm2.31.45a12.82,12.82,0,0,1,1.83-.81,12.74,12.74,0,0,0,1.83-.75A3.58,3.58,0,0,0,9.6,12a11.37,11.37,0,0,1-1.86.84q-1,.36-1.26.42Q5.1,13.68,4.2,14a5.28,5.28,0,0,0-1.62,1l.84.78A4,4,0,0,1,4.65,14.73Zm.93,3a10,10,0,0,0,1.59-1q1.35-.93,2.43-1.71a15,15,0,0,0-2,.42,24,24,0,0,0-3.45,1.14A16.4,16.4,0,0,1,5.58,17.76Zm.33-8.85a5.91,5.91,0,0,0-.69,1.23,13.7,13.7,0,0,1,3-1.2q1.92-.72,2.94-1.23A5.8,5.8,0,0,0,13,6.3a24.71,24.71,0,0,0-3.18.75,17.32,17.32,0,0,0-3,1A2.28,2.28,0,0,0,5.91,8.91Zm4.23,4.17H9.6a26.34,26.34,0,0,1-2.88,1.56L6,15.06a3.58,3.58,0,0,0-.51.3Q8,14.52,9,14.28A9.27,9.27,0,0,1,10.2,14ZM8,19.86l3.36-2.58a7.16,7.16,0,0,0-2.52.63A12,12,0,0,0,6.72,19q.54,1,1.08,1Zm3.45-4.59a.77.77,0,0,0-.57-.21,7.24,7.24,0,0,0-2.13,1.26,15.8,15.8,0,0,0-2,1.56,8.94,8.94,0,0,0,2.52-.6,11.93,11.93,0,0,0,2.64-1.2A2.56,2.56,0,0,0,11.49,15.27Zm-1.41-3.9q1.14-.57,1.32-1.23l-2,.9-1,.9A4.38,4.38,0,0,0,10.08,11.37ZM9.45,21.69a.81.81,0,0,0,.69.39L13,19.74h-.42a8.57,8.57,0,0,0-2,.42q-1.44.42-1.44.72A2.74,2.74,0,0,0,9.45,21.69Zm4.38-4.05a1.29,1.29,0,0,0-1-.54,3.54,3.54,0,0,0-2.28,1.44L9.18,20a48.15,48.15,0,0,1,5.1-1.32A1.69,1.69,0,0,0,13.83,17.64ZM13,8l.3-.63L9.9,9.12h.24a15.88,15.88,0,0,0,2.28-.54A1.16,1.16,0,0,0,13,8Zm.69-5.49a6.74,6.74,0,0,0-3.27,2,4.77,4.77,0,0,0,1.17-.18l1-.24a8.88,8.88,0,0,1,2.7-.54.94.94,0,0,0,.15.3.8.8,0,0,1,.15.36,16.1,16.1,0,0,1-2.07.72A7.52,7.52,0,0,0,10.92,6l-.3.3h.3q0-.18,1.77-.69L14.82,5a3.15,3.15,0,0,0,1.08-.66A13.93,13.93,0,0,0,17.16,3a8.7,8.7,0,0,1,1-1.08.74.74,0,0,0-.6-.3A12.65,12.65,0,0,0,13.65,2.46ZM14.52,19a1.79,1.79,0,0,1-.69,1.14,19.38,19.38,0,0,1-1.5,1.29l-1.17.93,4.68-1.56A4.06,4.06,0,0,0,14.52,19Zm-1,4.44A14.57,14.57,0,0,0,15,21.54a17,17,0,0,0-2.16.78q-1.44.6-1.44,1l.78,1Q12.6,24.36,13.5,23.4Zm2.88-1.86a7.69,7.69,0,0,1-1.86,2l-.75.66q-.33.3-.33.48a22.21,22.21,0,0,1,2.16-.72,11.1,11.1,0,0,0,2.28-.84Zm2.28,2.58-.3-.48-1,.48Z"/></g></g></svg>