<svg xmlns="http://www.w3.org/2000/svg" viewBox="0 0 20.7 29.8"><defs><style>.cls-1{fill:#231f20;}</style></defs><title>menu</title><g id="Layer_2" data-name="Layer 2"><g id="Layer_1-2" data-name="Layer 1"><path class="cls-1" d="M1.71,6.06Q3.42,5.82,7,5.7A13,13,0,0,0,8.16,4.38L9.6,2.64q.36-.36.36-.48A.11.11,0,0,0,9.84,2a1.18,1.18,0,0,0-.57.3L8.4,3A14.11,14.11,0,0,1,6.51,4.53a3.29,3.29,0,0,1-1.83.57V4.68q0-.54.9-1.32t.9-1.26A10.62,10.62,0,0,0,4.2,3.42L2.85,4.53a3.06,3.06,0,0,1-1.59.87Q0,5.4,0,4.68a9.2,9.2,0,0,1,.36-2.4Q.42,2,.54,1.44A6.41,6.41,0,0,0,.66.18l3.6.06q1,0,5.34-.18L11.46,0l2,.06q.48.06,3.84.33t3.36.69V6l-.24.24q-.84,0-7.26.78L11,7.26q-.78,0-2.1-.12Q7.38,7,6.24,7A31.27,31.27,0,0,0,3,7.2q-1.71.18-1.89.6a2.32,2.32,0,0,0-.6-.33Q0,7.26,0,7,0,6.3,1.71,6.06ZM1.62,3.42l1.14-.84q1-.72,1-1.08t-.57-.33a6.22,6.22,0,0,0-.93-.09,1.22,1.22,0,0,0-.69.18.61.61,0,0,0-.27.54ZM4.5,1.62a3.34,3.34,0,0,0-1.14,1,7.29,7.29,0,0,0,1.35-.48,13.84,13.84,0,0,0,1.77-.84H6A3.34,3.34,0,0,0,4.5,1.62Zm2.82.24A4.4,4.4,0,0,0,7,2.64,3.66,3.66,0,0,0,8.7,2a8.57,8.57,0,0,1,1.38-.66H7.74A1.66,1.66,0,0,0,7.32,1.86Zm3.93-.21A9.08,9.08,0,0,0,10.17,3L9.36,4.14H9.6a14,14,0,0,0,2.16-1.26A21.45,21.45,0,0,0,14,1.32L12.6,1.08A1.85,1.85,0,0,0,11.25,1.65Zm1.86,2.73A15,15,0,0,0,14.52,2.1a11.1,11.1,0,0,0-.9.69,6.92,6.92,0,0,1-1,.72,2,2,0,0,1-1,.27.14.14,0,0,1-.15-.09q0-.09-.09-.09a.25.25,0,0,0-.15.09L10.92,4l.24.18a3.37,3.37,0,0,1-.9.81,4.34,4.34,0,0,0-.9.75l2.28.3Q11.94,6.06,13.11,4.38Zm.39.84A18,18,0,0,0,18.9,2.1h.24V1.62l-2.82-.3h-.24A13.49,13.49,0,0,1,13.5,5.22Zm2.43-.3-.87.6h2a6.93,6.93,0,0,1,.72-1,8.42,8.42,0,0,0,.81-1,1.63,1.63,0,0,0,.27-.9,18.35,18.35,0,0,1-2,1.8A3.18,3.18,0,0,0,15.93,4.92Z"/><path class="cls-1" d="M1.71,17.06Q3.42,16.82,7,16.7a13,13,0,0,0,1.14-1.32L9.6,13.64q.36-.36.36-.48A.11.11,0,0,0,9.84,13a1.18,1.18,0,0,0-.57.3L8.4,14a14.11,14.11,0,0,1-1.89,1.53,3.29,3.29,0,0,1-1.83.57v-.42q0-.54.9-1.32t.9-1.26A10.62,10.62,0,0,0,4.2,14.42L2.85,15.53a3.06,3.06,0,0,1-1.59.87Q0,16.4,0,15.68a9.2,9.2,0,0,1,.36-2.4q.06-.24.18-.84a6.41,6.41,0,0,0,.12-1.26l3.6.06q1,0,5.34-.18L11.46,11l2,.06q.48.06,3.84.33t3.36.69V17l-.24.24q-.84,0-7.26.78L11,18.26q-.78,0-2.1-.12Q7.38,18,6.24,18A31.27,31.27,0,0,0,3,18.2q-1.71.18-1.89.6a2.32,2.32,0,0,0-.6-.33Q0,18.26,0,18,0,17.3,1.71,17.06Zm-.09-2.64,1.14-.84q1-.72,1-1.08t-.57-.33a6.22,6.22,0,0,0-.93-.09,1.22,1.22,0,0,0-.69.18.61.61,0,0,0-.27.54Zm2.88-1.8a3.34,3.34,0,0,0-1.14,1,7.29,7.29,0,0,0,1.35-.48,13.84,13.84,0,0,0,1.77-.84H6A3.34,3.34,0,0,0,4.5,12.62Zm2.82.24a4.4,4.4,0,0,0-.36.78A3.66,3.66,0,0,0,8.7,13a8.57,8.57,0,0,1,1.38-.66H7.74A1.66,1.66,0,0,0,7.32,12.86Zm3.93-.21A9.08,9.08,0,0,0,10.17,14l-.81,1.17H9.6a14,14,0,0,0,2.16-1.26A21.45,21.45,0,0,0,14,12.32l-1.44-.24A1.85,1.85,0,0,0,11.25,12.65Zm1.86,2.73a15,15,0,0,0,1.41-2.28,11.1,11.1,0,0,0-.9.69,6.92,6.92,0,0,1-1,.72,2,2,0,0,1-1,.27.14.14,0,0,1-.15-.09q0-.09-.09-.09a.25.25,0,0,0-.15.09l-.27.27.24.18a3.37,3.37,0,0,1-.9.81,4.34,4.34,0,0,0-.9.75l2.28.3Q11.94,17.06,13.11,15.38Zm.39.84a18,18,0,0,0,5.4-3.12h.24v-.48l-2.82-.3h-.24A13.49,13.49,0,0,1,13.5,16.22Zm2.43-.3-.87.6h2a6.93,6.93,0,0,1,.72-1,8.42,8.42,0,0,0,.81-1,1.63,1.63,0,0,0,.27-.9,18.35,18.35,0,0,1-2,1.8A3.18,3.18,0,0,0,15.93,15.92Z"/><path class="cls-1" d="M1.71,28.06Q3.42,27.82,7,27.7a13,13,0,0,0,1.14-1.32L9.6,24.64q.36-.36.36-.48A.11.11,0,0,0,9.84,24a1.18,1.18,0,0,0-.57.3L8.4,25a14.11,14.11,0,0,1-1.89,1.53,3.29,3.29,0,0,1-1.83.57v-.42q0-.54.9-1.32t.9-1.26A10.62,10.62,0,0,0,4.2,25.42L2.85,26.53a3.06,3.06,0,0,1-1.59.87Q0,27.4,0,26.68a9.2,9.2,0,0,1,.36-2.4q.06-.24.18-.84a6.41,6.41,0,0,0,.12-1.26l3.6.06q1,0,5.34-.18L11.46,22l2,.06q.48.06,3.84.33t3.36.69V28l-.24.24q-.84,0-7.26.78L11,29.26q-.78,0-2.1-.12Q7.38,29,6.24,29A31.27,31.27,0,0,0,3,29.2q-1.71.18-1.89.6a2.32,2.32,0,0,0-.6-.33Q0,29.26,0,29,0,28.3,1.71,28.06Zm-.09-2.64,1.14-.84q1-.72,1-1.08t-.57-.33a6.22,6.22,0,0,0-.93-.09,1.22,1.22,0,0,0-.69.18.61.61,0,0,0-.27.54Zm2.88-1.8a3.34,3.34,0,0,0-1.14,1,7.29,7.29,0,0,0,1.35-.48,13.84,13.84,0,0,0,1.77-.84H6A3.34,3.34,0,0,0,4.5,23.62Zm2.82.24a4.4,4.4,0,0,0-.36.78A3.66,3.66,0,0,0,8.7,24a8.57,8.57,0,0,1,1.38-.66H7.74A1.66,1.66,0,0,0,7.32,23.86Zm3.93-.21A9.08,9.08,0,0,0,10.17,25l-.81,1.17H9.6a14,14,0,0,0,2.16-1.26A21.45,21.45,0,0,0,14,23.32l-1.44-.24A1.85,1.85,0,0,0,11.25,23.65Zm1.86,2.73a15,15,0,0,0,1.41-2.28,11.1,11.1,0,0,0-.9.69,6.92,6.92,0,0,1-1,.72,2,2,0,0,1-1,.27.14.14,0,0,1-.15-.09q0-.09-.09-.09a.25.25,0,0,0-.15.09l-.27.27.24.18a3.37,3.37,0,0,1-.9.81,4.34,4.34,0,0,0-.9.75l2.28.3Q11.94,28.06,13.11,26.38Zm.39.84a18,18,0,0,0,5.4-3.12h.24v-.48l-2.82-.3h-.24A13.49,13.49,0,0,1,13.5,27.22Zm2.43-.3-.87.6h2a6.93,6.93,0,0,1,.72-1,8.42,8.42,0,0,0,.81-1,1.63,1.63,0,0,0,.27-.9,18.35,18.35,0,0,1-2,1.8A3.18,3.18,0,0,0,15.93,26.92Z"/></g></g></svg>