<svg xmlns="http://www.w3.org/2000/svg" viewBox="0 0 20.94 25.92"><defs><style>.cls-1{fill:#fff;}</style></defs><title>right</title><g id="Layer_2" data-name="Layer 2"><g id="Layer_1-2" data-name="Layer 1"><path class="cls-1" d="M20,11.91a4.4,4.4,0,0,1,.69.66,1.15,1.15,0,0,1,.27.75,3.25,3.25,0,0,1-.84,1.86,2.8,2.8,0,0,0-.72,1.2L9.54,25.92h-5q0-.18-.66-.24l-.84-.06a9.47,9.47,0,0,1-2.22-.21Q0,25.2,0,24.48t1.8-2.85q1.8-2.19,4.86-5.55,2.88-3.18,3.12-3.6L6.84,8.82Q4.44,5.94,3.3,4.44L2,3.24A10.85,10.85,0,0,1,0,1.08Q0,0,3.72,0A10.58,10.58,0,0,1,5,.06,8.23,8.23,0,0,0,6,.12L7.74.06a2,2,0,0,1,1,.3.85.85,0,0,1,.51.72,2.71,2.71,0,0,0,.81,1q.69.6,1,.9l8.34,8.46A7.3,7.3,0,0,0,20,11.91ZM2.28,24.12H3.54l-1-.48ZM3.78,3A13.93,13.93,0,0,0,5,4.32,3.15,3.15,0,0,0,6.12,5l2.13.63Q10,6.12,10,6.3h.3L10,6A7.52,7.52,0,0,0,7.47,4.86,16.1,16.1,0,0,1,5.4,4.14a.8.8,0,0,1,.15-.36.94.94,0,0,0,.15-.3A8.88,8.88,0,0,1,8.4,4l1,.24a4.77,4.77,0,0,0,1.17.18,6.74,6.74,0,0,0-3.27-2,12.65,12.65,0,0,0-3.87-.84.74.74,0,0,0-.6.3A8.7,8.7,0,0,1,3.78,3ZM5.34,23.94a22.21,22.21,0,0,1,2.16.72q0-.18-.33-.48l-.75-.66a7.69,7.69,0,0,1-1.86-2L3.06,23.1A11.1,11.1,0,0,0,5.34,23.94Zm4.44-1.62-1.23-1q-.87-.69-1.5-1.29A1.63,1.63,0,0,1,6.42,19a4.06,4.06,0,0,0-1.32,1.8Zm-.24,1q0-.42-1.44-1a17,17,0,0,0-2.16-.78,14.57,14.57,0,0,0,1.5,1.86q.9,1,1.32,1Zm-2.43-5.7a1.69,1.69,0,0,0-.45,1.08A48.15,48.15,0,0,1,11.76,20l-1.38-1.5A3.54,3.54,0,0,0,8.1,17.1,1.29,1.29,0,0,0,7.11,17.64ZM8,8a1.16,1.16,0,0,0,.54.63,15.88,15.88,0,0,0,2.28.54H11L7.68,7.32Zm3.18-.9A24.71,24.71,0,0,0,8,6.3a5.8,5.8,0,0,0,1.8,1.41q1,.51,2.94,1.23a13.7,13.7,0,0,1,3,1.2A5.91,5.91,0,0,0,15,8.91a2.28,2.28,0,0,0-.87-.81A17.32,17.32,0,0,0,11.16,7.05Zm.33,14.64a2.74,2.74,0,0,0,.39-.81q0-.3-1.44-.72a8.57,8.57,0,0,0-2-.42H8l2.82,2.34A.81.81,0,0,0,11.49,21.69Zm-2-6.42a2.56,2.56,0,0,0-.45.81,11.93,11.93,0,0,0,2.64,1.2,8.94,8.94,0,0,0,2.52.6,15.8,15.8,0,0,0-2-1.56A7.24,7.24,0,0,0,10,15.06.77.77,0,0,0,9.45,15.27Zm1.41-3.9a4.38,4.38,0,0,0,1.68.57l-1-.9-2-.9Q9.72,10.8,10.86,11.37ZM14.22,19a12,12,0,0,0-2.16-1.05,7.16,7.16,0,0,0-2.52-.63l3.36,2.58.24.06Q13.68,19.92,14.22,19ZM10.8,13.08l-.06,1a8.65,8.65,0,0,1,1.17.24q1,.24,3.57,1.08a3.58,3.58,0,0,0-.51-.3l-.75-.42a26.34,26.34,0,0,1-2.88-1.56Zm8.34.6q0-.78-1.53-1.74a14.61,14.61,0,0,0-3.15-1.5v.42a7.64,7.64,0,0,1-2-.48l-.69-.24a4.92,4.92,0,0,0-.93-.24v.24a34.42,34.42,0,0,1,3.42,1.32A7.77,7.77,0,0,1,16.5,13a1.79,1.79,0,0,1,.18.24.35.35,0,0,0,.3.18.41.41,0,0,0,.3-.12,4.06,4.06,0,0,1,.72.63q.36.39.6.39T19.14,13.68Zm-.78,1.38a5.28,5.28,0,0,0-1.62-1q-.9-.36-2.28-.78-.24-.06-1.26-.42A11.37,11.37,0,0,1,11.34,12a3.58,3.58,0,0,0,1.29,1.17,12.74,12.74,0,0,0,1.83.75,12.82,12.82,0,0,1,1.83.81,4,4,0,0,1,1.23,1.11ZM16.8,16.62a24,24,0,0,0-3.45-1.14,15,15,0,0,0-2-.42q1.08.78,2.43,1.71a10,10,0,0,0,1.59,1A16.4,16.4,0,0,1,16.8,16.62Z"/></g></g></svg>